<mxfile host="app.diagrams.net" agent="Mozilla/5.0 (Windows NT 10.0; Win64; x64) AppleWebKit/537.36 (KHTML, like Gecko) Chrome/130.0.0.0 Safari/537.36" version="24.8.3" pages="2">
  <diagram name="Page-1" id="v4IprL8CBDtkerbvfTiZ">
    <mxGraphModel dx="5376" dy="2666" grid="1" gridSize="10" guides="1" tooltips="1" connect="1" arrows="1" fold="1" page="1" pageScale="1" pageWidth="1100" pageHeight="850" math="0" shadow="0">
      <root>
        <mxCell id="0" />
        <mxCell id="1" parent="0" />
        <mxCell id="XN-No3UI-ebwH90ii3gY-88" style="edgeStyle=entityRelationEdgeStyle;rounded=0;orthogonalLoop=1;jettySize=auto;html=1;entryX=0;entryY=0.75;entryDx=0;entryDy=0;endArrow=ERzeroToMany;endFill=0;" parent="1" source="hV5qp4_twzhr--SOWwpg-1" target="2LUnROWldtuO4ZQCj-_K-3" edge="1">
          <mxGeometry relative="1" as="geometry" />
        </mxCell>
        <mxCell id="hV5qp4_twzhr--SOWwpg-1" value="USER" style="rounded=1;whiteSpace=wrap;html=1;fillColor=#dae8fc;strokeColor=#6c8ebf;" parent="1" vertex="1">
          <mxGeometry x="-930" y="255" width="280" height="30" as="geometry" />
        </mxCell>
        <mxCell id="XN-No3UI-ebwH90ii3gY-48" style="edgeStyle=orthogonalEdgeStyle;rounded=0;orthogonalLoop=1;jettySize=auto;html=1;exitX=0;exitY=0.5;exitDx=0;exitDy=0;entryX=1;entryY=0.25;entryDx=0;entryDy=0;verticalAlign=middle;endArrow=ERzeroToMany;endFill=0;" parent="1" source="hV5qp4_twzhr--SOWwpg-2" target="XN-No3UI-ebwH90ii3gY-15" edge="1">
          <mxGeometry relative="1" as="geometry" />
        </mxCell>
        <mxCell id="XN-No3UI-ebwH90ii3gY-55" style="edgeStyle=orthogonalEdgeStyle;rounded=0;orthogonalLoop=1;jettySize=auto;html=1;exitX=0;exitY=0.25;exitDx=0;exitDy=0;endArrow=ERzeroToMany;endFill=0;entryX=0.994;entryY=0.591;entryDx=0;entryDy=0;entryPerimeter=0;curved=1;" parent="1" source="hV5qp4_twzhr--SOWwpg-2" target="XN-No3UI-ebwH90ii3gY-28" edge="1">
          <mxGeometry relative="1" as="geometry">
            <mxPoint x="-910" y="430" as="targetPoint" />
          </mxGeometry>
        </mxCell>
        <mxCell id="XN-No3UI-ebwH90ii3gY-56" style="edgeStyle=entityRelationEdgeStyle;rounded=0;orthogonalLoop=1;jettySize=auto;html=1;endArrow=ERzeroToMany;endFill=0;entryX=0;entryY=0.75;entryDx=0;entryDy=0;" parent="1" source="hV5qp4_twzhr--SOWwpg-2" target="XN-No3UI-ebwH90ii3gY-24" edge="1">
          <mxGeometry relative="1" as="geometry">
            <mxPoint x="-460.0000000000002" y="330" as="targetPoint" />
          </mxGeometry>
        </mxCell>
        <mxCell id="XN-No3UI-ebwH90ii3gY-86" style="edgeStyle=entityRelationEdgeStyle;rounded=0;orthogonalLoop=1;jettySize=auto;html=1;exitX=1;exitY=0;exitDx=0;exitDy=0;entryX=0;entryY=0.25;entryDx=0;entryDy=0;endArrow=ERone;endFill=0;" parent="1" source="hV5qp4_twzhr--SOWwpg-2" target="NjPy52NbWh8JsZaD-3iH-2" edge="1">
          <mxGeometry relative="1" as="geometry" />
        </mxCell>
        <mxCell id="hV5qp4_twzhr--SOWwpg-2" value="&lt;font style=&quot;font-size: 14px;&quot;&gt;&lt;b style=&quot;&quot;&gt;_id &lt;/b&gt;ObjectId&lt;/font&gt;&lt;div style=&quot;font-size: 14px;&quot;&gt;&lt;font style=&quot;font-size: 14px;&quot;&gt;&lt;b&gt;username &lt;/b&gt;String Unique&lt;/font&gt;&lt;/div&gt;&lt;div style=&quot;font-size: 14px;&quot;&gt;&lt;font style=&quot;font-size: 14px;&quot;&gt;&lt;b&gt;mobile_number &lt;/b&gt;Number Unique&amp;nbsp;&lt;/font&gt;&lt;/div&gt;&lt;div style=&quot;font-size: 14px;&quot;&gt;&lt;font style=&quot;font-size: 14px;&quot;&gt;&lt;b&gt;is_mobile_number_verified &lt;/b&gt;Boolean default false&lt;/font&gt;&lt;/div&gt;&lt;div style=&quot;font-size: 14px;&quot;&gt;&lt;font style=&quot;font-size: 14px;&quot;&gt;&lt;b&gt;mobile_number_verification_time &lt;/b&gt;Date&amp;nbsp;&lt;/font&gt;&lt;/div&gt;&lt;div style=&quot;font-size: 14px;&quot;&gt;&lt;font style=&quot;font-size: 14px;&quot;&gt;&lt;b&gt;country_code_id &lt;/b&gt;ObjectId &lt;font color=&quot;#33ff33&quot;&gt;Ref&lt;/font&gt;&lt;/font&gt;&lt;/div&gt;&lt;div style=&quot;font-size: 14px;&quot;&gt;&lt;font style=&quot;font-size: 14px;&quot;&gt;&lt;b&gt;email &lt;/b&gt;String unique&amp;nbsp;&lt;/font&gt;&lt;/div&gt;&lt;div style=&quot;font-size: 14px;&quot;&gt;&lt;font style=&quot;font-size: 14px;&quot;&gt;&lt;b&gt;is_email_verified &lt;/b&gt;Boolean default false&lt;/font&gt;&lt;/div&gt;&lt;div style=&quot;font-size: 14px;&quot;&gt;&lt;font style=&quot;font-size: 14px;&quot;&gt;&lt;b&gt;email_verification_time &lt;/b&gt;Date&lt;/font&gt;&lt;/div&gt;&lt;div style=&quot;font-size: 14px;&quot;&gt;&lt;b&gt;password &lt;/b&gt;String&lt;/div&gt;&lt;div style=&quot;font-size: 14px;&quot;&gt;&lt;font style=&quot;font-size: 14px;&quot;&gt;&lt;b&gt;current_active_state &lt;/b&gt;enum (temporary,issuerer, buyer) default temporary&lt;/font&gt;&lt;/div&gt;&lt;div style=&quot;font-size: 14px;&quot;&gt;&lt;font style=&quot;font-size: 14px;&quot;&gt;&lt;b&gt;issuer_id &lt;/b&gt;ObjectId | null&amp;nbsp;&lt;/font&gt;&lt;span style=&quot;color: rgb(51, 255, 51); background-color: initial;&quot;&gt;Ref&lt;/span&gt;&lt;/div&gt;&lt;div style=&quot;font-size: 14px;&quot;&gt;&lt;font style=&quot;font-size: 14px;&quot;&gt;&lt;b&gt;buyer_id &lt;/b&gt;ObjectId | null&amp;nbsp;&lt;/font&gt;&lt;span style=&quot;color: rgb(51, 255, 51); background-color: initial;&quot;&gt;Ref&lt;/span&gt;&lt;/div&gt;&lt;div style=&quot;font-size: 14px;&quot;&gt;&lt;font style=&quot;font-size: 14px;&quot;&gt;&lt;b&gt;level_id &lt;/b&gt;Objectid&amp;nbsp;&lt;/font&gt;&lt;span style=&quot;color: rgb(51, 255, 51); background-color: initial;&quot;&gt;Ref&lt;/span&gt;&lt;/div&gt;&lt;div style=&quot;font-size: 14px;&quot;&gt;&lt;font style=&quot;font-size: 14px;&quot;&gt;&lt;b&gt;payment_method_id &lt;/b&gt;Objectid&lt;/font&gt;&lt;/div&gt;&lt;div style=&quot;font-size: 14px;&quot;&gt;&lt;font style=&quot;font-size: 14px;&quot;&gt;&lt;b style=&quot;&quot;&gt;payment_method &lt;/b&gt;enum (CASH, PAYPAL, Stripe)&amp;nbsp;&lt;/font&gt;&lt;/div&gt;&lt;div style=&quot;font-size: 14px;&quot;&gt;&lt;font style=&quot;font-size: 14px;&quot;&gt;&lt;div style=&quot;font-size: 12px;&quot;&gt;&lt;span style=&quot;font-size: 14px;&quot;&gt;&lt;b&gt;created_at&amp;nbsp;&lt;/b&gt;Date&lt;/span&gt;&lt;/div&gt;&lt;div style=&quot;font-size: 12px;&quot;&gt;&lt;span style=&quot;font-size: 14px;&quot;&gt;&lt;b&gt;updated_at&amp;nbsp;&lt;/b&gt;Date&lt;/span&gt;&lt;/div&gt;&lt;/font&gt;&lt;/div&gt;" style="rounded=0;whiteSpace=wrap;html=1;align=left;" parent="1" vertex="1">
          <mxGeometry x="-930" y="285" width="280" height="380" as="geometry" />
        </mxCell>
        <mxCell id="NjPy52NbWh8JsZaD-3iH-1" value="COUNTRY_CODE" style="rounded=1;whiteSpace=wrap;html=1;fillColor=#dae8fc;strokeColor=#6c8ebf;" parent="1" vertex="1">
          <mxGeometry x="630" y="-610" width="150" height="30" as="geometry" />
        </mxCell>
        <mxCell id="NjPy52NbWh8JsZaD-3iH-2" value="&lt;font style=&quot;font-size: 14px;&quot;&gt;&lt;b&gt;_id &lt;/b&gt;Objectid&lt;/font&gt;&lt;div style=&quot;font-size: 14px;&quot;&gt;&lt;font style=&quot;font-size: 14px;&quot;&gt;&lt;b&gt;country_code &lt;/b&gt;String&lt;/font&gt;&lt;/div&gt;&lt;div style=&quot;font-size: 14px;&quot;&gt;&lt;font style=&quot;font-size: 14px;&quot;&gt;&lt;div style=&quot;font-size: 12px;&quot;&gt;&lt;span style=&quot;font-size: 14px;&quot;&gt;&lt;b&gt;created_at&amp;nbsp;&lt;/b&gt;Date&lt;/span&gt;&lt;/div&gt;&lt;div style=&quot;font-size: 12px;&quot;&gt;&lt;span style=&quot;font-size: 14px;&quot;&gt;&lt;b&gt;updated_at&amp;nbsp;&lt;/b&gt;Date&lt;/span&gt;&lt;/div&gt;&lt;/font&gt;&lt;/div&gt;" style="rounded=0;whiteSpace=wrap;html=1;align=left;" parent="1" vertex="1">
          <mxGeometry x="630" y="-580" width="150" height="70" as="geometry" />
        </mxCell>
        <mxCell id="NjPy52NbWh8JsZaD-3iH-4" value="" style="edgeStyle=entityRelationEdgeStyle;fontSize=12;html=1;endArrow=ERzeroToOne;endFill=1;rounded=0;entryX=1;entryY=0.333;entryDx=0;entryDy=0;entryPerimeter=0;" parent="1" source="NjPy52NbWh8JsZaD-3iH-1" target="hV5qp4_twzhr--SOWwpg-2" edge="1">
          <mxGeometry width="100" height="100" relative="1" as="geometry">
            <mxPoint x="460" y="120" as="sourcePoint" />
            <mxPoint x="500" y="260" as="targetPoint" />
          </mxGeometry>
        </mxCell>
        <mxCell id="NjPy52NbWh8JsZaD-3iH-5" value="ISSUER" style="rounded=1;whiteSpace=wrap;html=1;fillColor=#fff2cc;strokeColor=#d6b656;" parent="1" vertex="1">
          <mxGeometry x="-80" y="370" width="190" height="30" as="geometry" />
        </mxCell>
        <mxCell id="NjPy52NbWh8JsZaD-3iH-6" value="" style="edgeStyle=entityRelationEdgeStyle;fontSize=12;html=1;endArrow=ERmandOne;startArrow=ERmandOne;rounded=0;exitX=0;exitY=0;exitDx=0;exitDy=0;" parent="1" source="NjPy52NbWh8JsZaD-3iH-9" target="hV5qp4_twzhr--SOWwpg-2" edge="1">
          <mxGeometry width="100" height="100" relative="1" as="geometry">
            <mxPoint x="170" y="477.99" as="sourcePoint" />
            <mxPoint x="231" y="410" as="targetPoint" />
          </mxGeometry>
        </mxCell>
        <mxCell id="GT7Ed_6fLBAB8st3_ZXu-10" style="edgeStyle=orthogonalEdgeStyle;rounded=0;orthogonalLoop=1;jettySize=auto;html=1;entryX=0.5;entryY=1;entryDx=0;entryDy=0;curved=1;endArrow=ERoneToMany;endFill=0;" edge="1" parent="1" source="NjPy52NbWh8JsZaD-3iH-7" target="GT7Ed_6fLBAB8st3_ZXu-1">
          <mxGeometry relative="1" as="geometry" />
        </mxCell>
        <mxCell id="GT7Ed_6fLBAB8st3_ZXu-21" style="edgeStyle=orthogonalEdgeStyle;rounded=0;orthogonalLoop=1;jettySize=auto;html=1;exitX=0.75;exitY=0;exitDx=0;exitDy=0;endArrow=ERzeroToMany;endFill=0;" edge="1" parent="1" source="NjPy52NbWh8JsZaD-3iH-7">
          <mxGeometry relative="1" as="geometry">
            <mxPoint x="-810" y="-160" as="targetPoint" />
          </mxGeometry>
        </mxCell>
        <mxCell id="NjPy52NbWh8JsZaD-3iH-7" value="BUYER" style="rounded=1;whiteSpace=wrap;html=1;fillColor=#fff2cc;strokeColor=#d6b656;" parent="1" vertex="1">
          <mxGeometry x="440" y="930" width="240" height="30" as="geometry" />
        </mxCell>
        <mxCell id="NjPy52NbWh8JsZaD-3iH-8" value="" style="edgeStyle=entityRelationEdgeStyle;fontSize=12;html=1;endArrow=ERmandOne;startArrow=ERmandOne;rounded=0;exitX=-0.018;exitY=0.865;exitDx=0;exitDy=0;exitPerimeter=0;entryX=0.621;entryY=1;entryDx=0;entryDy=0;entryPerimeter=0;" parent="1" source="NjPy52NbWh8JsZaD-3iH-10" target="hV5qp4_twzhr--SOWwpg-2" edge="1">
          <mxGeometry width="100" height="100" relative="1" as="geometry">
            <mxPoint x="305" y="499.03999999999996" as="sourcePoint" />
            <mxPoint x="315" y="430" as="targetPoint" />
          </mxGeometry>
        </mxCell>
        <mxCell id="XN-No3UI-ebwH90ii3gY-61" style="edgeStyle=entityRelationEdgeStyle;rounded=0;orthogonalLoop=1;jettySize=auto;html=1;exitX=0;exitY=0.75;exitDx=0;exitDy=0;entryX=1;entryY=0.5;entryDx=0;entryDy=0;endArrow=ERzeroToMany;endFill=0;" parent="1" source="NjPy52NbWh8JsZaD-3iH-9" target="XN-No3UI-ebwH90ii3gY-31" edge="1">
          <mxGeometry relative="1" as="geometry" />
        </mxCell>
        <mxCell id="XN-No3UI-ebwH90ii3gY-73" style="edgeStyle=entityRelationEdgeStyle;rounded=0;orthogonalLoop=1;jettySize=auto;html=1;entryX=1;entryY=0.5;entryDx=0;entryDy=0;endArrow=ERzeroToMany;endFill=0;" parent="1" source="NjPy52NbWh8JsZaD-3iH-9" target="XN-No3UI-ebwH90ii3gY-45" edge="1">
          <mxGeometry relative="1" as="geometry" />
        </mxCell>
        <mxCell id="XN-No3UI-ebwH90ii3gY-93" style="edgeStyle=entityRelationEdgeStyle;rounded=0;orthogonalLoop=1;jettySize=auto;html=1;exitX=0.75;exitY=1;exitDx=0;exitDy=0;entryX=0;entryY=0.25;entryDx=0;entryDy=0;endArrow=ERoneToMany;endFill=0;" parent="1" source="NjPy52NbWh8JsZaD-3iH-9" target="NjPy52NbWh8JsZaD-3iH-14" edge="1">
          <mxGeometry relative="1" as="geometry" />
        </mxCell>
        <mxCell id="NjPy52NbWh8JsZaD-3iH-9" value="&lt;div&gt;&lt;font style=&quot;font-size: 14px;&quot;&gt;&lt;b&gt;&lt;br&gt;&lt;/b&gt;&lt;/font&gt;&lt;/div&gt;&lt;div&gt;&lt;font style=&quot;font-size: 14px;&quot;&gt;&lt;b&gt;user_id &lt;/b&gt;ObjectId Ref&lt;/font&gt;&lt;/div&gt;&lt;font style=&quot;font-size: 14px;&quot;&gt;&lt;b&gt;profile_img_id &lt;/b&gt;Objectid Ref&lt;/font&gt;&lt;div&gt;&lt;font style=&quot;font-size: 14px;&quot;&gt;&lt;b&gt;social_media_id &lt;/b&gt;ObjectId Ref ArrayOfObjectId&lt;/font&gt;&lt;/div&gt;&lt;div&gt;&lt;font style=&quot;font-size: 14px;&quot;&gt;&lt;b&gt;is_verified &lt;/b&gt;Boolean&lt;/font&gt;&lt;/div&gt;&lt;div&gt;&lt;span style=&quot;font-size: 14px;&quot;&gt;&lt;b&gt;created_at &lt;/b&gt;Date&lt;/span&gt;&lt;/div&gt;&lt;div&gt;&lt;span style=&quot;font-size: 14px;&quot;&gt;&lt;b&gt;updated_at &lt;/b&gt;Date&lt;/span&gt;&lt;/div&gt;&lt;div&gt;&lt;br&gt;&lt;/div&gt;" style="rounded=0;whiteSpace=wrap;html=1;align=left;" parent="1" vertex="1">
          <mxGeometry x="-80" y="400" width="190" height="120" as="geometry" />
        </mxCell>
        <mxCell id="XN-No3UI-ebwH90ii3gY-74" style="edgeStyle=entityRelationEdgeStyle;rounded=0;orthogonalLoop=1;jettySize=auto;html=1;exitX=0;exitY=0.25;exitDx=0;exitDy=0;entryX=1;entryY=0.75;entryDx=0;entryDy=0;endArrow=ERzeroToMany;endFill=0;" parent="1" source="NjPy52NbWh8JsZaD-3iH-10" target="XN-No3UI-ebwH90ii3gY-44" edge="1">
          <mxGeometry relative="1" as="geometry" />
        </mxCell>
        <mxCell id="XN-No3UI-ebwH90ii3gY-91" style="edgeStyle=entityRelationEdgeStyle;rounded=0;orthogonalLoop=1;jettySize=auto;html=1;exitX=0.75;exitY=1;exitDx=0;exitDy=0;entryX=1;entryY=0.75;entryDx=0;entryDy=0;endArrow=ERoneToMany;endFill=0;" parent="1" source="NjPy52NbWh8JsZaD-3iH-10" target="NjPy52NbWh8JsZaD-3iH-20" edge="1">
          <mxGeometry relative="1" as="geometry" />
        </mxCell>
        <mxCell id="XN-No3UI-ebwH90ii3gY-94" style="edgeStyle=entityRelationEdgeStyle;rounded=0;orthogonalLoop=1;jettySize=auto;html=1;exitX=0.25;exitY=1;exitDx=0;exitDy=0;entryX=1;entryY=0.25;entryDx=0;entryDy=0;endArrow=ERoneToMany;endFill=0;" parent="1" source="NjPy52NbWh8JsZaD-3iH-10" target="NjPy52NbWh8JsZaD-3iH-14" edge="1">
          <mxGeometry relative="1" as="geometry" />
        </mxCell>
        <mxCell id="NjPy52NbWh8JsZaD-3iH-10" value="&lt;div style=&quot;&quot;&gt;&lt;font style=&quot;font-size: 14px;&quot;&gt;&lt;b&gt;user_id &lt;/b&gt;ObjectId Ref&lt;/font&gt;&lt;/div&gt;&lt;div style=&quot;&quot;&gt;&lt;font style=&quot;font-size: 14px;&quot;&gt;&lt;b&gt;profile_img_id&amp;nbsp;&lt;/b&gt;Objectid Ref&lt;/font&gt;&lt;div style=&quot;&quot;&gt;&lt;font style=&quot;font-size: 14px;&quot;&gt;&lt;b&gt;social_media_id&amp;nbsp;&lt;/b&gt;ObjectId Ref&lt;/font&gt;&lt;/div&gt;&lt;div&gt;&lt;b style=&quot;font-size: 14px; background-color: initial;&quot;&gt;is_verified &lt;/b&gt;&lt;span style=&quot;font-size: 14px; background-color: initial;&quot;&gt;Boolean&lt;/span&gt;&lt;/div&gt;&lt;div&gt;&lt;font style=&quot;font-size: 14px;&quot;&gt;&lt;div style=&quot;font-size: 12px;&quot;&gt;&lt;span style=&quot;font-size: 14px;&quot;&gt;&lt;b&gt;created_at&amp;nbsp;&lt;/b&gt;Date&lt;/span&gt;&lt;/div&gt;&lt;div style=&quot;font-size: 12px;&quot;&gt;&lt;span style=&quot;font-size: 14px;&quot;&gt;&lt;b&gt;updated_at&amp;nbsp;&lt;/b&gt;Date&lt;/span&gt;&lt;/div&gt;&lt;/font&gt;&lt;/div&gt;&lt;/div&gt;" style="rounded=0;whiteSpace=wrap;html=1;align=left;" parent="1" vertex="1">
          <mxGeometry x="440" y="960" width="240" height="160" as="geometry" />
        </mxCell>
        <mxCell id="NjPy52NbWh8JsZaD-3iH-11" value="FILE_OBJECT" style="rounded=1;whiteSpace=wrap;html=1;fillColor=#f5f5f5;fontColor=#333333;strokeColor=#666666;" parent="1" vertex="1">
          <mxGeometry x="120" y="1550" width="150" height="30" as="geometry" />
        </mxCell>
        <mxCell id="NjPy52NbWh8JsZaD-3iH-12" value="" style="edgeStyle=entityRelationEdgeStyle;fontSize=12;html=1;endArrow=ERzeroToOne;endFill=1;rounded=0;entryX=0.5;entryY=1;entryDx=0;entryDy=0;exitX=0.183;exitY=-0.033;exitDx=0;exitDy=0;exitPerimeter=0;" parent="1" source="NjPy52NbWh8JsZaD-3iH-11" target="NjPy52NbWh8JsZaD-3iH-9" edge="1">
          <mxGeometry width="100" height="100" relative="1" as="geometry">
            <mxPoint x="190" y="690" as="sourcePoint" />
            <mxPoint x="100.00000000000003" y="730" as="targetPoint" />
          </mxGeometry>
        </mxCell>
        <mxCell id="NjPy52NbWh8JsZaD-3iH-13" value="" style="edgeStyle=entityRelationEdgeStyle;fontSize=12;html=1;endArrow=ERzeroToOne;endFill=1;rounded=0;exitX=0.75;exitY=0;exitDx=0;exitDy=0;entryX=0;entryY=0.75;entryDx=0;entryDy=0;" parent="1" source="NjPy52NbWh8JsZaD-3iH-11" target="NjPy52NbWh8JsZaD-3iH-10" edge="1">
          <mxGeometry width="100" height="100" relative="1" as="geometry">
            <mxPoint x="260" y="741.98" as="sourcePoint" />
            <mxPoint x="319" y="640" as="targetPoint" />
          </mxGeometry>
        </mxCell>
        <mxCell id="NjPy52NbWh8JsZaD-3iH-14" value="&lt;font style=&quot;font-size: 14px;&quot;&gt;&lt;b&gt;file_path &lt;/b&gt;String&amp;nbsp;&lt;/font&gt;&lt;div style=&quot;font-size: 14px;&quot;&gt;&lt;font style=&quot;font-size: 14px;&quot;&gt;&lt;b&gt;folder_name &lt;/b&gt;String&lt;/font&gt;&lt;/div&gt;&lt;div style=&quot;font-size: 14px;&quot;&gt;&lt;font style=&quot;font-size: 14px;&quot;&gt;&lt;div style=&quot;font-size: 12px;&quot;&gt;&lt;span style=&quot;font-size: 14px;&quot;&gt;&lt;b&gt;created_at&amp;nbsp;&lt;/b&gt;Date&lt;/span&gt;&lt;/div&gt;&lt;div style=&quot;font-size: 12px;&quot;&gt;&lt;span style=&quot;font-size: 14px;&quot;&gt;&lt;b&gt;updated_at&amp;nbsp;&lt;/b&gt;Date&lt;/span&gt;&lt;/div&gt;&lt;/font&gt;&lt;/div&gt;" style="rounded=0;whiteSpace=wrap;html=1;align=left;" parent="1" vertex="1">
          <mxGeometry x="120" y="1580" width="150" height="80" as="geometry" />
        </mxCell>
        <mxCell id="NjPy52NbWh8JsZaD-3iH-15" value="ADMIN" style="rounded=1;whiteSpace=wrap;html=1;fillColor=#d5e8d4;strokeColor=#82b366;" parent="1" vertex="1">
          <mxGeometry x="280" y="465" width="160" height="30" as="geometry" />
        </mxCell>
        <mxCell id="NjPy52NbWh8JsZaD-3iH-16" value="&lt;font size=&quot;1&quot;&gt;&lt;b style=&quot;font-size: 14px;&quot;&gt;_id &lt;/b&gt;&lt;span style=&quot;font-size: 14px;&quot;&gt;ObjectId&lt;/span&gt;&lt;/font&gt;&lt;div&gt;&lt;span style=&quot;font-size: 14px;&quot;&gt;&lt;b&gt;email &lt;/b&gt;Unique&lt;/span&gt;&lt;/div&gt;&lt;div&gt;&lt;span style=&quot;font-size: 14px;&quot;&gt;&lt;b&gt;password &lt;/b&gt;String&lt;/span&gt;&lt;/div&gt;&lt;div&gt;&lt;span style=&quot;font-size: 14px;&quot;&gt;&lt;b&gt;security_code &lt;/b&gt;Number&lt;/span&gt;&lt;/div&gt;&lt;div&gt;&lt;span style=&quot;font-size: 14px;&quot;&gt;&lt;b&gt;security_name &lt;/b&gt;String&lt;/span&gt;&lt;/div&gt;&lt;div&gt;&lt;span style=&quot;font-size: 14px;&quot;&gt;&lt;b&gt;profile_img_id &lt;/b&gt;ObjectId | null&lt;b&gt;&amp;nbsp;&lt;/b&gt;&lt;/span&gt;&lt;/div&gt;&lt;div&gt;&lt;div&gt;&lt;b&gt;created_at&amp;nbsp;&lt;/b&gt;Date&lt;/div&gt;&lt;div&gt;&lt;b&gt;updated_at&amp;nbsp;&lt;/b&gt;Date&lt;/div&gt;&lt;/div&gt;" style="rounded=0;whiteSpace=wrap;html=1;align=left;" parent="1" vertex="1">
          <mxGeometry x="280" y="495" width="160" height="170" as="geometry" />
        </mxCell>
        <mxCell id="NjPy52NbWh8JsZaD-3iH-17" value="" style="edgeStyle=entityRelationEdgeStyle;fontSize=12;html=1;endArrow=ERzeroToOne;endFill=1;rounded=0;entryX=-0.025;entryY=0.615;entryDx=0;entryDy=0;entryPerimeter=0;exitX=1;exitY=0.25;exitDx=0;exitDy=0;" parent="1" source="NjPy52NbWh8JsZaD-3iH-11" target="NjPy52NbWh8JsZaD-3iH-16" edge="1">
          <mxGeometry width="100" height="100" relative="1" as="geometry">
            <mxPoint x="490" y="780" as="sourcePoint" />
            <mxPoint x="826.0799999999999" y="283.04999999999995" as="targetPoint" />
          </mxGeometry>
        </mxCell>
        <mxCell id="NjPy52NbWh8JsZaD-3iH-22" value="" style="edgeStyle=orthogonalEdgeStyle;rounded=0;orthogonalLoop=1;jettySize=auto;html=1;" parent="1" source="NjPy52NbWh8JsZaD-3iH-18" target="NjPy52NbWh8JsZaD-3iH-20" edge="1">
          <mxGeometry relative="1" as="geometry" />
        </mxCell>
        <mxCell id="NjPy52NbWh8JsZaD-3iH-18" value="SOCIAL_MEDIA_PLATFORMS" style="rounded=1;whiteSpace=wrap;html=1;fillColor=#dae8fc;strokeColor=#6c8ebf;" parent="1" vertex="1">
          <mxGeometry x="-730" y="920" width="180" height="30" as="geometry" />
        </mxCell>
        <mxCell id="NjPy52NbWh8JsZaD-3iH-20" value="&lt;font style=&quot;font-size: 14px;&quot;&gt;&lt;b&gt;_id &lt;/b&gt;ObjectId&amp;nbsp;&lt;/font&gt;&lt;div&gt;&lt;span style=&quot;font-size: 14px;&quot;&gt;&lt;b&gt;name &lt;/b&gt;enum (TIKTOK, INSTAGRAM, FACEBOOK, YOUTUBE)&lt;/span&gt;&lt;/div&gt;&lt;div&gt;&lt;div&gt;&lt;span style=&quot;font-size: 14px;&quot;&gt;&lt;b&gt;created_at&amp;nbsp;&lt;/b&gt;Date&lt;/span&gt;&lt;/div&gt;&lt;div&gt;&lt;span style=&quot;font-size: 14px;&quot;&gt;&lt;b&gt;updated_at&amp;nbsp;&lt;/b&gt;Date&lt;/span&gt;&lt;/div&gt;&lt;span style=&quot;font-size: 14px;&quot;&gt;&lt;br&gt;&lt;/span&gt;&lt;/div&gt;" style="rounded=0;whiteSpace=wrap;html=1;align=left;" parent="1" vertex="1">
          <mxGeometry x="-730" y="950" width="180" height="130" as="geometry" />
        </mxCell>
        <mxCell id="NjPy52NbWh8JsZaD-3iH-21" value="" style="edgeStyle=orthogonalEdgeStyle;fontSize=12;html=1;endArrow=ERzeroToOne;endFill=1;rounded=0;entryX=0.047;entryY=0.033;entryDx=0;entryDy=0;entryPerimeter=0;" parent="1" source="JizHKA1NFcYmYivMZC6B-2" target="NjPy52NbWh8JsZaD-3iH-5" edge="1">
          <mxGeometry width="100" height="100" relative="1" as="geometry">
            <mxPoint x="499.05999999999995" y="824.01" as="sourcePoint" />
            <mxPoint x="110" y="510" as="targetPoint" />
          </mxGeometry>
        </mxCell>
        <mxCell id="NjPy52NbWh8JsZaD-3iH-23" value="REQUEST" style="rounded=1;whiteSpace=wrap;html=1;fillColor=#dae8fc;strokeColor=#6c8ebf;" parent="1" vertex="1">
          <mxGeometry x="480" y="-370" width="140" height="25" as="geometry" />
        </mxCell>
        <mxCell id="NjPy52NbWh8JsZaD-3iH-25" value="LEVELS" style="rounded=1;whiteSpace=wrap;html=1;fillColor=#dae8fc;strokeColor=#6c8ebf;" parent="1" vertex="1">
          <mxGeometry x="731" y="350" width="140" height="25" as="geometry" />
        </mxCell>
        <mxCell id="2LUnROWldtuO4ZQCj-_K-1" value="&lt;b&gt;_id &lt;/b&gt;ObjectId&lt;div&gt;&lt;b&gt;request_type &lt;/b&gt;enum (LEVELUP ISSUERER BUYER)&lt;/div&gt;&lt;div&gt;&lt;b&gt;user_id &lt;/b&gt;ObjectId&lt;/div&gt;&lt;div&gt;&lt;b&gt;request_tags &lt;/b&gt;enum&lt;/div&gt;&lt;div&gt;&lt;b style=&quot;background-color: initial;&quot;&gt;created_at&amp;nbsp;&lt;/b&gt;&lt;span style=&quot;background-color: initial;&quot;&gt;Date&lt;/span&gt;&lt;/div&gt;&lt;div&gt;&lt;b&gt;updated_at&amp;nbsp;&lt;/b&gt;Date&lt;/div&gt;" style="rounded=0;whiteSpace=wrap;html=1;align=left;" parent="1" vertex="1">
          <mxGeometry x="481" y="-345" width="139" height="120" as="geometry" />
        </mxCell>
        <mxCell id="2LUnROWldtuO4ZQCj-_K-2" value="NOTIFICATIONS" style="rounded=1;whiteSpace=wrap;html=1;fillColor=#dae8fc;strokeColor=#6c8ebf;" parent="1" vertex="1">
          <mxGeometry x="950" y="40" width="140" height="30" as="geometry" />
        </mxCell>
        <mxCell id="2LUnROWldtuO4ZQCj-_K-3" value="&lt;b&gt;_id &lt;/b&gt;ObjectId&lt;div&gt;&lt;b&gt;entity &lt;/b&gt;enum for all models&lt;/div&gt;&lt;div&gt;&lt;b&gt;entity_id &lt;/b&gt;ObjectId&lt;/div&gt;&lt;div&gt;&lt;b&gt;from_user_id &lt;/b&gt;ObjectId&lt;/div&gt;&lt;div&gt;&lt;b&gt;tags &lt;/b&gt;enum (normal, urgent, super-urgent)&lt;/div&gt;&lt;div&gt;&lt;b&gt;to_user_id &lt;/b&gt;ObjectId&lt;/div&gt;&lt;div&gt;&lt;b&gt;deep_link &lt;/b&gt;String&amp;nbsp;&lt;/div&gt;&lt;div&gt;&lt;b&gt;is_read &lt;/b&gt;Boolean&lt;/div&gt;&lt;div&gt;&lt;div&gt;&lt;b&gt;created_at&amp;nbsp;&lt;/b&gt;Date&lt;/div&gt;&lt;div&gt;&lt;b&gt;updated_at&amp;nbsp;&lt;/b&gt;Date&lt;/div&gt;&lt;/div&gt;" style="rounded=0;whiteSpace=wrap;html=1;align=left;" parent="1" vertex="1">
          <mxGeometry x="951" y="70" width="139" height="190" as="geometry" />
        </mxCell>
        <mxCell id="2LUnROWldtuO4ZQCj-_K-4" value="&lt;b&gt;_id &lt;/b&gt;ObjectId&lt;div&gt;&lt;b&gt;level_name &lt;/b&gt;enum 1-30&lt;/div&gt;&lt;div&gt;&lt;b style=&quot;background-color: initial;&quot;&gt;description &lt;/b&gt;&lt;span style=&quot;background-color: initial;&quot;&gt;String&lt;/span&gt;&lt;/div&gt;&lt;div style=&quot;&quot;&gt;&lt;div&gt;&lt;span style=&quot;&quot;&gt;&lt;b&gt;created_at&amp;nbsp;&lt;/b&gt;Date&lt;/span&gt;&lt;/div&gt;&lt;div&gt;&lt;span style=&quot;&quot;&gt;&lt;b&gt;updated_at&amp;nbsp;&lt;/b&gt;Date&lt;/span&gt;&lt;/div&gt;&lt;/div&gt;" style="rounded=0;whiteSpace=wrap;html=1;align=left;" parent="1" vertex="1">
          <mxGeometry x="731" y="375" width="140" height="110" as="geometry" />
        </mxCell>
        <mxCell id="2LUnROWldtuO4ZQCj-_K-10" value="" style="edgeStyle=entityRelationEdgeStyle;fontSize=12;html=1;endArrow=ERzeroToOne;endFill=1;rounded=0;exitX=0.289;exitY=1.022;exitDx=0;exitDy=0;exitPerimeter=0;" parent="1" source="NjPy52NbWh8JsZaD-3iH-20" target="NjPy52NbWh8JsZaD-3iH-10" edge="1">
          <mxGeometry width="100" height="100" relative="1" as="geometry">
            <mxPoint x="350" y="820" as="sourcePoint" />
            <mxPoint x="10" y="800" as="targetPoint" />
          </mxGeometry>
        </mxCell>
        <mxCell id="2LUnROWldtuO4ZQCj-_K-11" value="" style="edgeStyle=entityRelationEdgeStyle;fontSize=12;html=1;endArrow=ERzeroToOne;endFill=1;rounded=0;entryX=0;entryY=0.5;entryDx=0;entryDy=0;exitX=0.996;exitY=0.124;exitDx=0;exitDy=0;exitPerimeter=0;" parent="1" source="hV5qp4_twzhr--SOWwpg-2" target="2LUnROWldtuO4ZQCj-_K-4" edge="1">
          <mxGeometry width="100" height="100" relative="1" as="geometry">
            <mxPoint x="620" y="210" as="sourcePoint" />
            <mxPoint x="720" y="110" as="targetPoint" />
          </mxGeometry>
        </mxCell>
        <mxCell id="2LUnROWldtuO4ZQCj-_K-12" value="" style="edgeStyle=entityRelationEdgeStyle;fontSize=12;html=1;endArrow=ERzeroToOne;endFill=1;rounded=0;exitX=1.011;exitY=0.203;exitDx=0;exitDy=0;exitPerimeter=0;entryX=0.014;entryY=0.84;entryDx=0;entryDy=0;entryPerimeter=0;" parent="1" source="hV5qp4_twzhr--SOWwpg-2" target="2LUnROWldtuO4ZQCj-_K-1" edge="1">
          <mxGeometry width="100" height="100" relative="1" as="geometry">
            <mxPoint x="610" y="330" as="sourcePoint" />
            <mxPoint x="710" y="230" as="targetPoint" />
          </mxGeometry>
        </mxCell>
        <mxCell id="JizHKA1NFcYmYivMZC6B-1" value="SOCIAL_MEDIA" style="rounded=1;whiteSpace=wrap;html=1;fillColor=#dae8fc;strokeColor=#6c8ebf;" parent="1" vertex="1">
          <mxGeometry x="-520" y="740" width="220" height="30" as="geometry" />
        </mxCell>
        <mxCell id="JizHKA1NFcYmYivMZC6B-2" value="&lt;font style=&quot;font-size: 14px;&quot;&gt;&lt;b&gt;_id &lt;/b&gt;ObjectId&amp;nbsp;&lt;/font&gt;&lt;div&gt;&lt;span style=&quot;font-size: 14px;&quot;&gt;&lt;b&gt;social_media_platform&amp;nbsp;&lt;/b&gt;ObjectId&lt;/span&gt;&lt;/div&gt;&lt;div&gt;&lt;span style=&quot;font-size: 14px;&quot;&gt;&lt;b&gt;social_media_link &lt;/b&gt;String&lt;/span&gt;&lt;/div&gt;&lt;div&gt;&lt;span style=&quot;font-size: 14px;&quot;&gt;&lt;b&gt;is_verified &lt;/b&gt;Boolean&lt;/span&gt;&lt;/div&gt;&lt;div&gt;&lt;div&gt;&lt;span style=&quot;font-size: 14px;&quot;&gt;&lt;b&gt;created_at&amp;nbsp;&lt;/b&gt;Date&lt;/span&gt;&lt;/div&gt;&lt;div&gt;&lt;span style=&quot;font-size: 14px;&quot;&gt;&lt;b&gt;updated_at&amp;nbsp;&lt;/b&gt;Date&lt;/span&gt;&lt;/div&gt;&lt;span style=&quot;font-size: 14px;&quot;&gt;&lt;br&gt;&lt;/span&gt;&lt;/div&gt;" style="rounded=0;whiteSpace=wrap;html=1;align=left;" parent="1" vertex="1">
          <mxGeometry x="-520" y="770" width="220" height="120" as="geometry" />
        </mxCell>
        <mxCell id="ve9i2tW8fkqF0bzOM7ck-1" value="REFRESH_TOKEN" style="rounded=1;whiteSpace=wrap;html=1;fillColor=#dae8fc;strokeColor=#6c8ebf;" parent="1" vertex="1">
          <mxGeometry x="550" y="-100" width="140" height="30" as="geometry" />
        </mxCell>
        <mxCell id="ve9i2tW8fkqF0bzOM7ck-2" value="&lt;b&gt;_id &lt;/b&gt;ObjectId&lt;div&gt;&lt;b&gt;token &lt;/b&gt;String&lt;/div&gt;&lt;div&gt;&lt;b&gt;hashed_token &lt;/b&gt;String&lt;/div&gt;&lt;div&gt;&lt;b&gt;is_expired &lt;/b&gt;Boolean&lt;/div&gt;&lt;div&gt;&lt;b&gt;user_type &lt;/b&gt;enum&lt;/div&gt;&lt;div&gt;&lt;b&gt;user_id &lt;/b&gt;ObjectId&lt;/div&gt;&lt;div&gt;&lt;b style=&quot;background-color: initial;&quot;&gt;created_at&amp;nbsp;&lt;/b&gt;&lt;span style=&quot;background-color: initial;&quot;&gt;Date&lt;/span&gt;&lt;br&gt;&lt;/div&gt;&lt;div&gt;&lt;div&gt;&lt;b&gt;updated_at&amp;nbsp;&lt;/b&gt;Date&lt;/div&gt;&lt;/div&gt;" style="rounded=0;whiteSpace=wrap;html=1;align=left;" parent="1" vertex="1">
          <mxGeometry x="551" y="-70" width="139" height="130" as="geometry" />
        </mxCell>
        <mxCell id="cmQsjv1Qaa69i3l_1YwA-3" value="DOCUMENTS" style="rounded=1;whiteSpace=wrap;html=1;fillColor=#dae8fc;strokeColor=#6c8ebf;" parent="1" vertex="1">
          <mxGeometry x="610" y="1220" width="140" height="30" as="geometry" />
        </mxCell>
        <mxCell id="XN-No3UI-ebwH90ii3gY-111" style="edgeStyle=orthogonalEdgeStyle;rounded=0;orthogonalLoop=1;jettySize=auto;html=1;exitX=0;exitY=0.25;exitDx=0;exitDy=0;entryX=1;entryY=0.5;entryDx=0;entryDy=0;endArrow=ERone;endFill=0;" parent="1" source="cmQsjv1Qaa69i3l_1YwA-4" target="NjPy52NbWh8JsZaD-3iH-14" edge="1">
          <mxGeometry relative="1" as="geometry" />
        </mxCell>
        <mxCell id="cmQsjv1Qaa69i3l_1YwA-4" value="&lt;b&gt;_id &lt;/b&gt;ObjectId&lt;div&gt;&lt;b&gt;file_path_id &lt;/b&gt;ObjectId&lt;/div&gt;&lt;div&gt;&lt;b&gt;is_uploaded &lt;/b&gt;Boolean&lt;/div&gt;&lt;div&gt;&lt;b&gt;is_approved&amp;nbsp;&lt;/b&gt;Boolean&lt;/div&gt;&lt;div&gt;&lt;b&gt;is_rejected &lt;/b&gt;Boolean&lt;/div&gt;&lt;div&gt;&lt;b style=&quot;background-color: initial;&quot;&gt;created_at&amp;nbsp;&lt;/b&gt;&lt;span style=&quot;background-color: initial;&quot;&gt;Date&lt;/span&gt;&lt;br&gt;&lt;/div&gt;&lt;div&gt;&lt;div&gt;&lt;b&gt;updated_at&amp;nbsp;&lt;/b&gt;Date&lt;/div&gt;&lt;/div&gt;" style="rounded=0;whiteSpace=wrap;html=1;align=left;" parent="1" vertex="1">
          <mxGeometry x="611" y="1250" width="139" height="110" as="geometry" />
        </mxCell>
        <mxCell id="cmQsjv1Qaa69i3l_1YwA-8" value="" style="edgeStyle=entityRelationEdgeStyle;fontSize=12;html=1;endArrow=ERzeroToOne;endFill=1;rounded=0;entryX=1;entryY=0.407;entryDx=0;entryDy=0;entryPerimeter=0;" parent="1" source="ve9i2tW8fkqF0bzOM7ck-2" target="hV5qp4_twzhr--SOWwpg-2" edge="1">
          <mxGeometry width="100" height="100" relative="1" as="geometry">
            <mxPoint x="290" y="260" as="sourcePoint" />
            <mxPoint x="390" y="160" as="targetPoint" />
          </mxGeometry>
        </mxCell>
        <mxCell id="cmQsjv1Qaa69i3l_1YwA-9" value="" style="edgeStyle=entityRelationEdgeStyle;fontSize=12;html=1;endArrow=ERzeroToOne;endFill=1;rounded=0;exitX=0.155;exitY=0.978;exitDx=0;exitDy=0;exitPerimeter=0;entryX=1;entryY=0.5;entryDx=0;entryDy=0;" parent="1" source="ve9i2tW8fkqF0bzOM7ck-2" target="NjPy52NbWh8JsZaD-3iH-16" edge="1">
          <mxGeometry width="100" height="100" relative="1" as="geometry">
            <mxPoint x="440" y="240" as="sourcePoint" />
            <mxPoint x="540" y="140" as="targetPoint" />
          </mxGeometry>
        </mxCell>
        <mxCell id="cmQsjv1Qaa69i3l_1YwA-10" value="" style="edgeStyle=entityRelationEdgeStyle;fontSize=12;html=1;endArrow=ERzeroToOne;endFill=1;rounded=0;entryX=0.988;entryY=0.295;entryDx=0;entryDy=0;entryPerimeter=0;exitX=0.046;exitY=0.118;exitDx=0;exitDy=0;exitPerimeter=0;elbow=vertical;" parent="1" source="2LUnROWldtuO4ZQCj-_K-3" target="hV5qp4_twzhr--SOWwpg-2" edge="1">
          <mxGeometry width="100" height="100" relative="1" as="geometry">
            <mxPoint x="370" y="310" as="sourcePoint" />
            <mxPoint x="470" y="210" as="targetPoint" />
          </mxGeometry>
        </mxCell>
        <mxCell id="XN-No3UI-ebwH90ii3gY-3" style="edgeStyle=orthogonalEdgeStyle;rounded=0;orthogonalLoop=1;jettySize=auto;html=1;" parent="1" edge="1">
          <mxGeometry relative="1" as="geometry">
            <mxPoint x="-680" y="100" as="sourcePoint" />
            <mxPoint x="-680" y="100" as="targetPoint" />
          </mxGeometry>
        </mxCell>
        <mxCell id="XN-No3UI-ebwH90ii3gY-14" value="TRANSACTION" style="swimlane;childLayout=stackLayout;horizontal=1;startSize=50;horizontalStack=0;rounded=1;fontSize=12;fontStyle=0;strokeWidth=2;resizeParent=0;resizeLast=1;shadow=0;dashed=0;align=center;arcSize=4;whiteSpace=wrap;html=1;labelBorderColor=none;fillColor=#dae8fc;strokeColor=#6c8ebf;" parent="1" vertex="1">
          <mxGeometry x="-400" y="-620" width="230" height="260" as="geometry" />
        </mxCell>
        <mxCell id="XN-No3UI-ebwH90ii3gY-15" value="&lt;b&gt;_id &lt;/b&gt;ObjectId&lt;br&gt;&lt;b&gt;user_id&lt;/b&gt; ObjectId&lt;br&gt;&lt;b&gt;payment_method_id &lt;/b&gt;ObjectId Ref&lt;br&gt;&lt;b&gt;&lt;div style=&quot;&quot;&gt;&lt;b style=&quot;background-color: initial;&quot;&gt;amount&lt;/b&gt;&lt;span style=&quot;background-color: initial; font-weight: normal;&quot;&gt; Number&lt;/span&gt;&lt;/div&gt;&lt;/b&gt;&lt;div&gt;&lt;b&gt;status &lt;/b&gt;enum(sucess,failed)&lt;/div&gt;&lt;div&gt;&lt;b&gt;description&lt;/b&gt; String&lt;/div&gt;&lt;div&gt;&lt;b&gt;created_at &lt;/b&gt;Date&lt;br&gt;&lt;b&gt;updated_at &lt;/b&gt;Date&lt;/div&gt;" style="align=left;spacingLeft=4;fontSize=12;verticalAlign=top;resizable=0;rotatable=0;part=1;html=1;" parent="XN-No3UI-ebwH90ii3gY-14" vertex="1">
          <mxGeometry y="50" width="230" height="210" as="geometry" />
        </mxCell>
        <mxCell id="XN-No3UI-ebwH90ii3gY-66" style="edgeStyle=entityRelationEdgeStyle;rounded=0;orthogonalLoop=1;jettySize=auto;html=1;exitX=1;exitY=0.75;exitDx=0;exitDy=0;entryX=0;entryY=0.5;entryDx=0;entryDy=0;endArrow=ERoneToMany;endFill=0;" parent="1" source="XN-No3UI-ebwH90ii3gY-20" target="XN-No3UI-ebwH90ii3gY-15" edge="1">
          <mxGeometry relative="1" as="geometry" />
        </mxCell>
        <mxCell id="XN-No3UI-ebwH90ii3gY-20" value="PAYMENT_METHOD" style="swimlane;childLayout=stackLayout;horizontal=1;startSize=50;horizontalStack=0;rounded=1;fontSize=14;fontStyle=0;strokeWidth=2;resizeParent=0;resizeLast=1;shadow=0;dashed=0;align=center;arcSize=4;whiteSpace=wrap;html=1;fillColor=#dae8fc;strokeColor=#6c8ebf;" parent="1" vertex="1">
          <mxGeometry x="-980" y="-600" width="210" height="157.5" as="geometry" />
        </mxCell>
        <mxCell id="XN-No3UI-ebwH90ii3gY-21" value="&lt;b&gt;_id&lt;/b&gt; ObjectId&lt;br&gt;&lt;b&gt;method_name&lt;/b&gt; enum(Stripe,Paypal,&lt;br&gt;or other)&lt;br&gt;&lt;b&gt;ssid&lt;/b&gt; ObjectId&lt;div&gt;&lt;b&gt;created_at&lt;/b&gt; Date&lt;br&gt;&lt;b&gt;updated_at&lt;/b&gt; Date&lt;/div&gt;" style="align=left;spacingLeft=4;fontSize=12;verticalAlign=top;resizable=0;rotatable=0;part=1;html=1;" parent="XN-No3UI-ebwH90ii3gY-20" vertex="1">
          <mxGeometry y="50" width="210" height="107.5" as="geometry" />
        </mxCell>
        <mxCell id="XN-No3UI-ebwH90ii3gY-23" value="OTP" style="swimlane;childLayout=stackLayout;horizontal=1;startSize=50;horizontalStack=0;rounded=1;fontSize=14;fontStyle=0;strokeWidth=2;resizeParent=0;resizeLast=1;shadow=0;dashed=0;align=center;arcSize=4;whiteSpace=wrap;html=1;fillColor=#dae8fc;strokeColor=#6c8ebf;" parent="1" vertex="1">
          <mxGeometry x="150" y="-690" width="160" height="230" as="geometry" />
        </mxCell>
        <mxCell id="XN-No3UI-ebwH90ii3gY-24" value="&lt;b&gt;_id &lt;/b&gt;ObjectId&lt;br&gt;&lt;b&gt;otp&lt;/b&gt;&amp;nbsp;String&lt;div&gt;&lt;b&gt;entity_type&lt;/b&gt; enum(mobile,&lt;br&gt;email)&lt;br&gt;&lt;b&gt;user_type&lt;/b&gt; enum(influencer,&lt;br&gt;buyer)&lt;div&gt;&lt;b&gt;user_id&lt;/b&gt; ObjectId Ref&lt;br&gt;&lt;div&gt;&lt;div&gt;&lt;b&gt;is_expired&lt;/b&gt; Boolean&lt;br&gt;&lt;div&gt;&lt;b&gt;expired_at &lt;/b&gt;Date&lt;/div&gt;&lt;div&gt;&lt;b&gt;created_at &lt;/b&gt;Date&lt;/div&gt;&lt;div&gt;&lt;b&gt;updated_at&lt;/b&gt; Date&lt;br&gt;&lt;br&gt;&lt;/div&gt;&lt;/div&gt;&lt;/div&gt;&lt;/div&gt;&lt;/div&gt;" style="align=left;spacingLeft=4;fontSize=12;verticalAlign=top;resizable=0;rotatable=0;part=1;html=1;" parent="XN-No3UI-ebwH90ii3gY-23" vertex="1">
          <mxGeometry y="50" width="160" height="180" as="geometry" />
        </mxCell>
        <mxCell id="XN-No3UI-ebwH90ii3gY-25" value="ROLES" style="swimlane;childLayout=stackLayout;horizontal=1;startSize=50;horizontalStack=0;rounded=1;fontSize=14;fontStyle=0;strokeWidth=2;resizeParent=0;resizeLast=1;shadow=0;dashed=0;align=center;arcSize=4;whiteSpace=wrap;html=1;fillColor=#dae8fc;strokeColor=#6c8ebf;" parent="1" vertex="1">
          <mxGeometry x="-1510" y="-620" width="160" height="120" as="geometry" />
        </mxCell>
        <mxCell id="XN-No3UI-ebwH90ii3gY-26" value="&lt;b&gt;_id &lt;/b&gt;ObjectId&lt;div&gt;&lt;b&gt;role_name&lt;/b&gt;&amp;nbsp;String&lt;/div&gt;&lt;div&gt;&lt;b&gt;created_at&lt;/b&gt; Date&lt;br&gt;&lt;b&gt;updated_at&lt;/b&gt; Date&lt;/div&gt;" style="align=left;spacingLeft=4;fontSize=12;verticalAlign=top;resizable=0;rotatable=0;part=1;html=1;" parent="XN-No3UI-ebwH90ii3gY-25" vertex="1">
          <mxGeometry y="50" width="160" height="70" as="geometry" />
        </mxCell>
        <mxCell id="XN-No3UI-ebwH90ii3gY-27" value="PENALTY" style="swimlane;childLayout=stackLayout;horizontal=1;startSize=50;horizontalStack=0;rounded=1;fontSize=14;fontStyle=0;strokeWidth=2;resizeParent=0;resizeLast=1;shadow=0;dashed=0;align=center;arcSize=4;whiteSpace=wrap;html=1;fillColor=#dae8fc;strokeColor=#6c8ebf;" parent="1" vertex="1">
          <mxGeometry x="-2180" y="100" width="180" height="239" as="geometry" />
        </mxCell>
        <mxCell id="XN-No3UI-ebwH90ii3gY-28" value="&lt;b&gt;_id &lt;/b&gt;ObjectId&lt;div&gt;&lt;b&gt;user_id &lt;/b&gt;ObjectId Ref&lt;/div&gt;&lt;div&gt;&lt;b&gt;penalty_reason_id &lt;/b&gt;ObjectId Ref&lt;br&gt;&lt;b&gt;amount &lt;/b&gt;Number&lt;/div&gt;&lt;div&gt;&lt;b&gt;status &lt;/b&gt;String&lt;/div&gt;&lt;div&gt;&lt;b&gt;imposed_by_which_bond&amp;nbsp;&lt;/b&gt;&lt;br&gt;ObjectId Ref&lt;/div&gt;&lt;div&gt;&lt;b&gt;imposed_by &lt;/b&gt;ObjectId Ref&lt;/div&gt;&lt;div&gt;&lt;b&gt;transaction_id &lt;/b&gt;ObjectId Ref&lt;br&gt;&lt;b&gt;description &lt;/b&gt;String&lt;/div&gt;&lt;div&gt;&lt;b&gt;created_at &lt;/b&gt;Date&lt;br&gt;&lt;b&gt;updated_at &lt;/b&gt;Date&lt;/div&gt;" style="align=left;spacingLeft=4;fontSize=12;verticalAlign=top;resizable=0;rotatable=0;part=1;html=1;" parent="XN-No3UI-ebwH90ii3gY-27" vertex="1">
          <mxGeometry y="50" width="180" height="189" as="geometry" />
        </mxCell>
        <mxCell id="XN-No3UI-ebwH90ii3gY-64" style="edgeStyle=entityRelationEdgeStyle;rounded=0;orthogonalLoop=1;jettySize=auto;html=1;exitX=0;exitY=0.5;exitDx=0;exitDy=0;endArrow=ERone;endFill=0;entryX=0.994;entryY=0.662;entryDx=0;entryDy=0;entryPerimeter=0;" parent="1" source="XN-No3UI-ebwH90ii3gY-29" target="XN-No3UI-ebwH90ii3gY-28" edge="1">
          <mxGeometry relative="1" as="geometry">
            <mxPoint x="-910" y="369.9999999999998" as="targetPoint" />
          </mxGeometry>
        </mxCell>
        <mxCell id="XN-No3UI-ebwH90ii3gY-29" value="PENALTY_REASON" style="swimlane;childLayout=stackLayout;horizontal=1;startSize=50;horizontalStack=0;rounded=1;fontSize=14;fontStyle=0;strokeWidth=2;resizeParent=0;resizeLast=1;shadow=0;dashed=0;align=center;arcSize=4;whiteSpace=wrap;html=1;fillColor=#dae8fc;strokeColor=#6c8ebf;" parent="1" vertex="1">
          <mxGeometry x="-1940" y="-620" width="160" height="240" as="geometry">
            <mxRectangle x="-820" y="280" width="80" height="50" as="alternateBounds" />
          </mxGeometry>
        </mxCell>
        <mxCell id="XN-No3UI-ebwH90ii3gY-30" value="&lt;b&gt;_Id &lt;/b&gt;ObjectId&lt;br&gt;&lt;b&gt;reason &lt;/b&gt;String&lt;div&gt;&lt;b&gt;amount &lt;/b&gt;Number&lt;/div&gt;&lt;div&gt;&lt;b&gt;created_at &lt;/b&gt;Date&lt;/div&gt;&lt;div&gt;&lt;b&gt;updated_at &lt;/b&gt;Date&lt;/div&gt;" style="align=left;spacingLeft=4;fontSize=12;verticalAlign=top;resizable=0;rotatable=0;part=1;html=1;" parent="XN-No3UI-ebwH90ii3gY-29" vertex="1">
          <mxGeometry y="50" width="160" height="190" as="geometry" />
        </mxCell>
        <mxCell id="XN-No3UI-ebwH90ii3gY-63" style="edgeStyle=entityRelationEdgeStyle;rounded=0;orthogonalLoop=1;jettySize=auto;html=1;exitX=1;exitY=0.25;exitDx=0;exitDy=0;entryX=0;entryY=0.25;entryDx=0;entryDy=0;endArrow=ERoneToMany;endFill=0;" parent="1" source="XN-No3UI-ebwH90ii3gY-31" target="XN-No3UI-ebwH90ii3gY-34" edge="1">
          <mxGeometry relative="1" as="geometry" />
        </mxCell>
        <mxCell id="GT7Ed_6fLBAB8st3_ZXu-15" style="edgeStyle=orthogonalEdgeStyle;rounded=0;orthogonalLoop=1;jettySize=auto;html=1;exitX=1;exitY=0;exitDx=0;exitDy=0;entryX=0;entryY=0.25;entryDx=0;entryDy=0;curved=1;endArrow=ERzeroToMany;endFill=0;" edge="1" parent="1" source="XN-No3UI-ebwH90ii3gY-31" target="GT7Ed_6fLBAB8st3_ZXu-8">
          <mxGeometry relative="1" as="geometry" />
        </mxCell>
        <mxCell id="XN-No3UI-ebwH90ii3gY-31" value="SPONSOR_BOND" style="swimlane;childLayout=stackLayout;horizontal=1;startSize=50;horizontalStack=0;rounded=1;fontSize=14;fontStyle=0;strokeWidth=2;resizeParent=0;resizeLast=1;shadow=0;dashed=0;align=center;arcSize=4;whiteSpace=wrap;html=1;fillColor=#dae8fc;strokeColor=#6c8ebf;" parent="1" vertex="1">
          <mxGeometry x="-2020" y="1200" width="160" height="333" as="geometry" />
        </mxCell>
        <mxCell id="XN-No3UI-ebwH90ii3gY-32" value="&lt;b&gt;_id &lt;/b&gt;ObjectId&lt;div&gt;&lt;b&gt;issuer_id &lt;/b&gt;ObjectId Ref&lt;/div&gt;&lt;div&gt;&lt;b&gt;evaluation_id &lt;/b&gt;ObjectId Ref&lt;/div&gt;&lt;div&gt;&lt;b&gt;title&lt;/b&gt; String&lt;/div&gt;&lt;div&gt;&lt;b&gt;buyer_id &lt;/b&gt;ObjectId Ref&lt;/div&gt;&lt;div&gt;&lt;b&gt;bond_price &lt;/b&gt;Number&lt;/div&gt;&lt;div&gt;&lt;b&gt;total_bonds &lt;/b&gt;Number&lt;/div&gt;&lt;div&gt;&lt;b&gt;photos&lt;/b&gt; Array string&lt;/div&gt;&lt;div&gt;&lt;b&gt;social_media_links&lt;/b&gt; Array&amp;nbsp;&lt;/div&gt;&lt;div&gt;string&lt;/div&gt;&lt;div&gt;&lt;b&gt;bond_issurance_amount&lt;/b&gt;&lt;/div&gt;&lt;div&gt;Number&lt;/div&gt;&lt;div&gt;&lt;b&gt;total_bonds&lt;/b&gt; Number&lt;/div&gt;&lt;div&gt;&lt;b&gt;validty_number&lt;/b&gt; Number&lt;/div&gt;&lt;div&gt;&lt;b&gt;status &lt;/b&gt;enum(pending,app-&lt;/div&gt;&lt;div&gt;&lt;span style=&quot;background-color: initial;&quot;&gt;roved,rejected)&lt;/span&gt;&lt;/div&gt;&lt;div&gt;&lt;b&gt;created_at &lt;/b&gt;Date&lt;/div&gt;&lt;div&gt;&lt;b&gt;updated_at &lt;/b&gt;Date&lt;/div&gt;" style="align=left;spacingLeft=4;fontSize=12;verticalAlign=top;resizable=0;rotatable=0;part=1;html=1;" parent="XN-No3UI-ebwH90ii3gY-31" vertex="1">
          <mxGeometry y="50" width="160" height="283" as="geometry" />
        </mxCell>
        <mxCell id="XN-No3UI-ebwH90ii3gY-65" style="edgeStyle=entityRelationEdgeStyle;rounded=0;orthogonalLoop=1;jettySize=auto;html=1;endArrow=ERone;endFill=0;" parent="1" source="XN-No3UI-ebwH90ii3gY-33" edge="1">
          <mxGeometry relative="1" as="geometry">
            <mxPoint x="-2020" y="1430" as="targetPoint" />
            <Array as="points">
              <mxPoint x="-1800" y="1240" />
            </Array>
          </mxGeometry>
        </mxCell>
        <mxCell id="XN-No3UI-ebwH90ii3gY-33" value="SPONSOR_MISSION" style="swimlane;childLayout=stackLayout;horizontal=1;startSize=50;horizontalStack=0;rounded=1;fontSize=14;fontStyle=0;strokeWidth=2;resizeParent=0;resizeLast=1;shadow=0;dashed=0;align=center;arcSize=4;whiteSpace=wrap;html=1;fillColor=#dae8fc;strokeColor=#6c8ebf;" parent="1" vertex="1">
          <mxGeometry x="-2110" y="490" width="160" height="300" as="geometry" />
        </mxCell>
        <mxCell id="XN-No3UI-ebwH90ii3gY-34" value="&lt;b&gt;_id &lt;/b&gt;ObjectId&lt;div&gt;&lt;b&gt;bond_id &lt;/b&gt;ObjectId Ref&lt;/div&gt;&lt;div&gt;&lt;b&gt;description &lt;/b&gt;String&lt;/div&gt;&lt;div&gt;&lt;b&gt;validty_number &lt;/b&gt;Number&lt;/div&gt;&lt;div&gt;&lt;b&gt;task_type &lt;/b&gt;String&lt;/div&gt;&lt;div&gt;&lt;b&gt;status &lt;/b&gt;enum(pending,appr-&lt;/div&gt;&lt;div&gt;oved,rejected)&lt;/div&gt;&lt;div&gt;&lt;b&gt;created_at &lt;/b&gt;Date&lt;/div&gt;&lt;div&gt;&lt;b&gt;updated_at &lt;/b&gt;Date&lt;/div&gt;" style="align=left;spacingLeft=4;fontSize=12;verticalAlign=top;resizable=0;rotatable=0;part=1;html=1;" parent="XN-No3UI-ebwH90ii3gY-33" vertex="1">
          <mxGeometry y="50" width="160" height="250" as="geometry" />
        </mxCell>
        <mxCell id="XN-No3UI-ebwH90ii3gY-80" style="edgeStyle=orthogonalEdgeStyle;rounded=0;orthogonalLoop=1;jettySize=auto;html=1;exitX=0;exitY=0.25;exitDx=0;exitDy=0;entryX=1;entryY=0.5;entryDx=0;entryDy=0;endArrow=ERone;endFill=0;curved=1;" parent="1" source="XN-No3UI-ebwH90ii3gY-37" target="XN-No3UI-ebwH90ii3gY-25" edge="1">
          <mxGeometry relative="1" as="geometry" />
        </mxCell>
        <mxCell id="XN-No3UI-ebwH90ii3gY-37" value="ROLES_PERMISSIONS" style="swimlane;childLayout=stackLayout;horizontal=1;startSize=50;horizontalStack=0;rounded=1;fontSize=14;fontStyle=0;strokeWidth=2;resizeParent=0;resizeLast=1;shadow=0;dashed=0;align=center;arcSize=4;whiteSpace=wrap;html=1;fillColor=#dae8fc;strokeColor=#6c8ebf;" parent="1" vertex="1">
          <mxGeometry x="-1600" y="570" width="160" height="220" as="geometry" />
        </mxCell>
        <mxCell id="XN-No3UI-ebwH90ii3gY-38" value="&lt;b&gt;_id &lt;/b&gt;ObjectId&lt;div&gt;&lt;b&gt;role_id &lt;/b&gt;ObjectId&lt;/div&gt;&lt;div&gt;&lt;b&gt;permission_id &lt;/b&gt;ObjectId Ref&lt;/div&gt;&lt;div&gt;&lt;b&gt;created_at &lt;/b&gt;Date&lt;/div&gt;&lt;div&gt;&lt;b&gt;updated_at &lt;/b&gt;Date&lt;/div&gt;" style="align=left;spacingLeft=4;fontSize=12;verticalAlign=top;resizable=0;rotatable=0;part=1;html=1;" parent="XN-No3UI-ebwH90ii3gY-37" vertex="1">
          <mxGeometry y="50" width="160" height="170" as="geometry" />
        </mxCell>
        <mxCell id="XN-No3UI-ebwH90ii3gY-42" value="PERMISSION" style="swimlane;childLayout=stackLayout;horizontal=1;startSize=50;horizontalStack=0;rounded=1;fontSize=14;fontStyle=0;strokeWidth=2;resizeParent=0;resizeLast=1;shadow=0;dashed=0;align=center;arcSize=4;whiteSpace=wrap;html=1;fillColor=#dae8fc;strokeColor=#6c8ebf;" parent="1" vertex="1">
          <mxGeometry x="-940" y="1280" width="160" height="130" as="geometry" />
        </mxCell>
        <mxCell id="XN-No3UI-ebwH90ii3gY-43" value="&lt;b&gt;_id &lt;/b&gt;ObjectId&lt;div&gt;&lt;b&gt;permission_name &lt;/b&gt;String&lt;/div&gt;&lt;div&gt;&lt;b&gt;created_at &lt;/b&gt;Date&lt;/div&gt;&lt;div&gt;&lt;b&gt;updated_at &lt;/b&gt;Date&lt;/div&gt;" style="align=left;spacingLeft=4;fontSize=12;verticalAlign=top;resizable=0;rotatable=0;part=1;html=1;" parent="XN-No3UI-ebwH90ii3gY-42" vertex="1">
          <mxGeometry y="50" width="160" height="80" as="geometry" />
        </mxCell>
        <mxCell id="XN-No3UI-ebwH90ii3gY-51" style="edgeStyle=entityRelationEdgeStyle;rounded=0;orthogonalLoop=1;jettySize=auto;html=1;exitX=1;exitY=0.5;exitDx=0;exitDy=0;entryX=0;entryY=0.5;entryDx=0;entryDy=0;endArrow=ERzeroToOne;endFill=0;" parent="1" source="XN-No3UI-ebwH90ii3gY-44" target="NjPy52NbWh8JsZaD-3iH-10" edge="1">
          <mxGeometry relative="1" as="geometry" />
        </mxCell>
        <mxCell id="XN-No3UI-ebwH90ii3gY-52" style="edgeStyle=entityRelationEdgeStyle;rounded=0;orthogonalLoop=1;jettySize=auto;html=1;entryX=0;entryY=0.5;entryDx=0;entryDy=0;endArrow=ERzeroToOne;endFill=0;" parent="1" source="XN-No3UI-ebwH90ii3gY-44" target="NjPy52NbWh8JsZaD-3iH-9" edge="1">
          <mxGeometry relative="1" as="geometry" />
        </mxCell>
        <mxCell id="XN-No3UI-ebwH90ii3gY-44" value="Evaluation" style="swimlane;childLayout=stackLayout;horizontal=1;startSize=50;horizontalStack=0;rounded=1;fontSize=14;fontStyle=0;strokeWidth=2;resizeParent=0;resizeLast=1;shadow=0;dashed=0;align=center;arcSize=4;whiteSpace=wrap;html=1;fillColor=#dae8fc;strokeColor=#6c8ebf;" parent="1" vertex="1">
          <mxGeometry x="-410" y="1470" width="160" height="180" as="geometry" />
        </mxCell>
        <mxCell id="XN-No3UI-ebwH90ii3gY-45" value="&lt;b&gt;_id &lt;/b&gt;ObjectId&lt;div&gt;&lt;b&gt;buyer_id &lt;/b&gt;ObjectId Ref&lt;/div&gt;&lt;div&gt;&lt;b&gt;issuer_id &lt;/b&gt;ObjectId Ref&lt;/div&gt;&lt;div&gt;&lt;b&gt;bond_id &lt;/b&gt;ObjectId Ref&lt;/div&gt;&lt;div&gt;&lt;b&gt;rating &lt;/b&gt;Number&lt;/div&gt;&lt;div&gt;&lt;b&gt;comment &lt;/b&gt;String&lt;/div&gt;&lt;div&gt;&lt;b&gt;created_at &lt;/b&gt;Date&lt;/div&gt;&lt;div&gt;&lt;b&gt;updated_at &lt;/b&gt;Date&lt;/div&gt;" style="align=left;spacingLeft=4;fontSize=12;verticalAlign=top;resizable=0;rotatable=0;part=1;html=1;" parent="XN-No3UI-ebwH90ii3gY-44" vertex="1">
          <mxGeometry y="50" width="160" height="130" as="geometry" />
        </mxCell>
        <mxCell id="XN-No3UI-ebwH90ii3gY-50" style="edgeStyle=entityRelationEdgeStyle;rounded=0;orthogonalLoop=1;jettySize=auto;html=1;exitX=0;exitY=0.25;exitDx=0;exitDy=0;entryX=1;entryY=0.5;entryDx=0;entryDy=0;endArrow=ERone;endFill=0;" parent="1" source="XN-No3UI-ebwH90ii3gY-15" target="XN-No3UI-ebwH90ii3gY-20" edge="1">
          <mxGeometry relative="1" as="geometry" />
        </mxCell>
        <mxCell id="XN-No3UI-ebwH90ii3gY-53" style="edgeStyle=orthogonalEdgeStyle;rounded=0;orthogonalLoop=1;jettySize=auto;html=1;exitX=1;exitY=0.25;exitDx=0;exitDy=0;entryX=0.5;entryY=1;entryDx=0;entryDy=0;endArrow=ERoneToMany;endFill=0;curved=1;" parent="1" source="XN-No3UI-ebwH90ii3gY-28" target="XN-No3UI-ebwH90ii3gY-30" edge="1">
          <mxGeometry relative="1" as="geometry" />
        </mxCell>
        <mxCell id="XN-No3UI-ebwH90ii3gY-57" style="edgeStyle=entityRelationEdgeStyle;rounded=0;orthogonalLoop=1;jettySize=auto;html=1;entryX=1;entryY=0.25;entryDx=0;entryDy=0;endArrow=ERoneToMany;endFill=0;exitX=0.5;exitY=1;exitDx=0;exitDy=0;" parent="1" source="XN-No3UI-ebwH90ii3gY-26" target="XN-No3UI-ebwH90ii3gY-38" edge="1">
          <mxGeometry relative="1" as="geometry">
            <mxPoint x="-1340" y="-576" as="sourcePoint" />
            <mxPoint x="-574.72" y="520.0000000000001" as="targetPoint" />
            <Array as="points">
              <mxPoint x="-1330" y="-576" />
              <mxPoint x="-1340" y="-576" />
            </Array>
          </mxGeometry>
        </mxCell>
        <mxCell id="XN-No3UI-ebwH90ii3gY-62" style="edgeStyle=entityRelationEdgeStyle;rounded=0;orthogonalLoop=1;jettySize=auto;html=1;exitX=0;exitY=0.25;exitDx=0;exitDy=0;entryX=0.997;entryY=0.641;entryDx=0;entryDy=0;entryPerimeter=0;endArrow=ERzeroToMany;endFill=0;" parent="1" source="NjPy52NbWh8JsZaD-3iH-10" target="XN-No3UI-ebwH90ii3gY-32" edge="1">
          <mxGeometry relative="1" as="geometry" />
        </mxCell>
        <mxCell id="XN-No3UI-ebwH90ii3gY-72" style="edgeStyle=entityRelationEdgeStyle;rounded=0;orthogonalLoop=1;jettySize=auto;html=1;exitX=0;exitY=0.25;exitDx=0;exitDy=0;entryX=1;entryY=0.5;entryDx=0;entryDy=0;endArrow=ERoneToMany;endFill=0;" parent="1" source="XN-No3UI-ebwH90ii3gY-43" target="XN-No3UI-ebwH90ii3gY-37" edge="1">
          <mxGeometry relative="1" as="geometry" />
        </mxCell>
        <mxCell id="XN-No3UI-ebwH90ii3gY-78" style="rounded=0;orthogonalLoop=1;jettySize=auto;html=1;entryX=0;entryY=0.5;entryDx=0;entryDy=0;endArrow=ERone;endFill=0;" parent="1" source="XN-No3UI-ebwH90ii3gY-32" target="XN-No3UI-ebwH90ii3gY-45" edge="1">
          <mxGeometry relative="1" as="geometry" />
        </mxCell>
        <mxCell id="XN-No3UI-ebwH90ii3gY-84" style="edgeStyle=entityRelationEdgeStyle;rounded=0;orthogonalLoop=1;jettySize=auto;html=1;exitX=1;exitY=0.5;exitDx=0;exitDy=0;entryX=0;entryY=0.75;entryDx=0;entryDy=0;endArrow=ERone;endFill=0;" parent="1" source="XN-No3UI-ebwH90ii3gY-38" target="XN-No3UI-ebwH90ii3gY-42" edge="1">
          <mxGeometry relative="1" as="geometry" />
        </mxCell>
        <mxCell id="XN-No3UI-ebwH90ii3gY-87" style="edgeStyle=entityRelationEdgeStyle;rounded=0;orthogonalLoop=1;jettySize=auto;html=1;exitX=1;exitY=0.25;exitDx=0;exitDy=0;entryX=0.019;entryY=0.641;entryDx=0;entryDy=0;entryPerimeter=0;endArrow=ERoneToMany;endFill=0;" parent="1" source="hV5qp4_twzhr--SOWwpg-2" target="ve9i2tW8fkqF0bzOM7ck-2" edge="1">
          <mxGeometry relative="1" as="geometry" />
        </mxCell>
        <mxCell id="XN-No3UI-ebwH90ii3gY-89" style="edgeStyle=entityRelationEdgeStyle;rounded=0;orthogonalLoop=1;jettySize=auto;html=1;exitX=0;exitY=1;exitDx=0;exitDy=0;entryX=1.01;entryY=0.147;entryDx=0;entryDy=0;entryPerimeter=0;endArrow=ERone;endFill=0;" parent="1" source="NjPy52NbWh8JsZaD-3iH-25" target="hV5qp4_twzhr--SOWwpg-2" edge="1">
          <mxGeometry relative="1" as="geometry" />
        </mxCell>
        <mxCell id="XN-No3UI-ebwH90ii3gY-90" style="edgeStyle=entityRelationEdgeStyle;rounded=0;orthogonalLoop=1;jettySize=auto;html=1;entryX=0.997;entryY=0.438;entryDx=0;entryDy=0;entryPerimeter=0;endArrow=ERoneToMany;endFill=0;" parent="1" source="NjPy52NbWh8JsZaD-3iH-5" target="JizHKA1NFcYmYivMZC6B-2" edge="1">
          <mxGeometry relative="1" as="geometry" />
        </mxCell>
        <mxCell id="XN-No3UI-ebwH90ii3gY-77" style="edgeStyle=orthogonalEdgeStyle;rounded=0;orthogonalLoop=1;jettySize=auto;html=1;exitX=0;exitY=0.75;exitDx=0;exitDy=0;entryX=0.5;entryY=1;entryDx=0;entryDy=0;endArrow=ERone;endFill=0;curved=1;" parent="1" source="XN-No3UI-ebwH90ii3gY-44" target="XN-No3UI-ebwH90ii3gY-32" edge="1">
          <mxGeometry relative="1" as="geometry">
            <mxPoint x="-436.54999999999995" y="1782.5" as="sourcePoint" />
            <mxPoint x="-1900.0000000000002" y="1470" as="targetPoint" />
          </mxGeometry>
        </mxCell>
        <mxCell id="GT7Ed_6fLBAB8st3_ZXu-9" style="edgeStyle=orthogonalEdgeStyle;rounded=0;orthogonalLoop=1;jettySize=auto;html=1;entryX=0.5;entryY=0;entryDx=0;entryDy=0;curved=1;endArrow=ERone;endFill=0;" edge="1" parent="1" source="GT7Ed_6fLBAB8st3_ZXu-1" target="NjPy52NbWh8JsZaD-3iH-7">
          <mxGeometry relative="1" as="geometry" />
        </mxCell>
        <mxCell id="GT7Ed_6fLBAB8st3_ZXu-12" style="edgeStyle=orthogonalEdgeStyle;rounded=0;orthogonalLoop=1;jettySize=auto;html=1;exitX=0.25;exitY=1;exitDx=0;exitDy=0;entryX=1;entryY=0.25;entryDx=0;entryDy=0;curved=1;endArrow=ERoneToMany;endFill=0;" edge="1" parent="1" source="GT7Ed_6fLBAB8st3_ZXu-1" target="XN-No3UI-ebwH90ii3gY-31">
          <mxGeometry relative="1" as="geometry" />
        </mxCell>
        <mxCell id="GT7Ed_6fLBAB8st3_ZXu-1" value="Cancellation" style="swimlane;childLayout=stackLayout;horizontal=1;startSize=50;horizontalStack=0;rounded=1;fontSize=14;fontStyle=0;strokeWidth=2;resizeParent=0;resizeLast=1;shadow=0;dashed=0;align=center;arcSize=4;whiteSpace=wrap;html=1;fillColor=#dae8fc;strokeColor=#6c8ebf;" vertex="1" parent="1">
          <mxGeometry x="-640" y="-320" width="210" height="200" as="geometry" />
        </mxCell>
        <mxCell id="GT7Ed_6fLBAB8st3_ZXu-2" value="&lt;b&gt;_id&lt;/b&gt; ObjectId&lt;br&gt;&lt;b&gt;Reason&lt;/b&gt;&amp;nbsp;String&lt;br&gt;&lt;b&gt;Description &lt;/b&gt;String&lt;div&gt;&lt;b&gt;bond_id &lt;/b&gt;ObjectId&lt;br&gt;&lt;div&gt;&lt;b&gt;buyer_id &lt;/b&gt;ObjectId&lt;/div&gt;&lt;div&gt;&lt;b&gt;status &lt;/b&gt;String&lt;/div&gt;&lt;div&gt;&lt;b&gt;created_at&lt;/b&gt; Date&lt;br&gt;&lt;b&gt;updated_at&lt;/b&gt; Date&lt;/div&gt;&lt;/div&gt;" style="align=left;spacingLeft=4;fontSize=12;verticalAlign=top;resizable=0;rotatable=0;part=1;html=1;" vertex="1" parent="GT7Ed_6fLBAB8st3_ZXu-1">
          <mxGeometry y="50" width="210" height="150" as="geometry" />
        </mxCell>
        <mxCell id="GT7Ed_6fLBAB8st3_ZXu-3" value="Offers" style="swimlane;childLayout=stackLayout;horizontal=1;startSize=50;horizontalStack=0;rounded=1;fontSize=14;fontStyle=0;strokeWidth=2;resizeParent=0;resizeLast=1;shadow=0;dashed=0;align=center;arcSize=4;whiteSpace=wrap;html=1;fillColor=#dae8fc;strokeColor=#6c8ebf;" vertex="1" parent="1">
          <mxGeometry x="-940" y="-370" width="210" height="200" as="geometry" />
        </mxCell>
        <mxCell id="GT7Ed_6fLBAB8st3_ZXu-4" value="&lt;b&gt;_id&lt;/b&gt; ObjectId&lt;br&gt;&lt;b&gt;Price&lt;/b&gt;&amp;nbsp;Number&lt;br&gt;&lt;b&gt;number_of_bonds &lt;/b&gt;Numbe&lt;b&gt;r&lt;/b&gt;&lt;div&gt;&lt;b&gt;issuer_id &lt;/b&gt;ObjectId&lt;/div&gt;&lt;div&gt;&lt;b&gt;bond_id &lt;/b&gt;ObjectId&lt;br&gt;&lt;div&gt;&lt;b&gt;buyer_id &lt;/b&gt;ObjectId&lt;/div&gt;&lt;div&gt;&lt;b&gt;status &lt;/b&gt;String&lt;/div&gt;&lt;div&gt;&lt;b&gt;created_at&lt;/b&gt; Date&lt;br&gt;&lt;b&gt;updated_at&lt;/b&gt; Date&lt;/div&gt;&lt;/div&gt;" style="align=left;spacingLeft=4;fontSize=12;verticalAlign=top;resizable=0;rotatable=0;part=1;html=1;" vertex="1" parent="GT7Ed_6fLBAB8st3_ZXu-3">
          <mxGeometry y="50" width="210" height="150" as="geometry" />
        </mxCell>
        <mxCell id="GT7Ed_6fLBAB8st3_ZXu-16" style="edgeStyle=orthogonalEdgeStyle;rounded=0;orthogonalLoop=1;jettySize=auto;html=1;entryX=0;entryY=0.25;entryDx=0;entryDy=0;curved=1;endArrow=ERmany;endFill=0;" edge="1" parent="1" source="GT7Ed_6fLBAB8st3_ZXu-7" target="NjPy52NbWh8JsZaD-3iH-10">
          <mxGeometry relative="1" as="geometry" />
        </mxCell>
        <mxCell id="GT7Ed_6fLBAB8st3_ZXu-7" value="BuyerOffers" style="swimlane;childLayout=stackLayout;horizontal=1;startSize=50;horizontalStack=0;rounded=1;fontSize=14;fontStyle=0;strokeWidth=2;resizeParent=0;resizeLast=1;shadow=0;dashed=0;align=center;arcSize=4;whiteSpace=wrap;html=1;fillColor=#dae8fc;strokeColor=#6c8ebf;" vertex="1" parent="1">
          <mxGeometry x="-1280" y="-130" width="210" height="200" as="geometry" />
        </mxCell>
        <mxCell id="GT7Ed_6fLBAB8st3_ZXu-8" value="&lt;b&gt;_id&lt;/b&gt; ObjectId&lt;br&gt;&lt;b&gt;Price&lt;/b&gt;&amp;nbsp;Number&lt;br&gt;&lt;b&gt;number_of_bonds &lt;/b&gt;Numbe&lt;b&gt;r&lt;/b&gt;&lt;div&gt;&lt;b&gt;bond_id &lt;/b&gt;ObjectId&lt;br&gt;&lt;div&gt;&lt;b&gt;issuer_id &lt;/b&gt;ObjectId&lt;br&gt;&lt;div&gt;&lt;b&gt;oldbuyer_id &lt;/b&gt;ObjectId&lt;/div&gt;&lt;div&gt;&lt;b&gt;newbuyer_id&amp;nbsp;&lt;/b&gt;ObjectId&lt;/div&gt;&lt;div&gt;&lt;b&gt;status &lt;/b&gt;String&lt;/div&gt;&lt;div&gt;&lt;b&gt;created_at&lt;/b&gt; Date&lt;br&gt;&lt;b&gt;updated_at&lt;/b&gt; Date&lt;/div&gt;&lt;/div&gt;&lt;/div&gt;" style="align=left;spacingLeft=4;fontSize=12;verticalAlign=top;resizable=0;rotatable=0;part=1;html=1;" vertex="1" parent="GT7Ed_6fLBAB8st3_ZXu-7">
          <mxGeometry y="50" width="210" height="150" as="geometry" />
        </mxCell>
        <mxCell id="GT7Ed_6fLBAB8st3_ZXu-13" style="edgeStyle=orthogonalEdgeStyle;rounded=0;orthogonalLoop=1;jettySize=auto;html=1;exitX=1;exitY=0.25;exitDx=0;exitDy=0;entryX=0.125;entryY=0.971;entryDx=0;entryDy=0;entryPerimeter=0;curved=1;endArrow=ERoneToMany;endFill=0;" edge="1" parent="1" source="XN-No3UI-ebwH90ii3gY-32" target="GT7Ed_6fLBAB8st3_ZXu-2">
          <mxGeometry relative="1" as="geometry" />
        </mxCell>
        <mxCell id="GT7Ed_6fLBAB8st3_ZXu-14" style="edgeStyle=orthogonalEdgeStyle;rounded=0;orthogonalLoop=1;jettySize=auto;html=1;exitX=0.5;exitY=1;exitDx=0;exitDy=0;entryX=0.75;entryY=0;entryDx=0;entryDy=0;curved=1;endArrow=ERoneToMany;endFill=0;" edge="1" parent="1" source="GT7Ed_6fLBAB8st3_ZXu-8" target="XN-No3UI-ebwH90ii3gY-31">
          <mxGeometry relative="1" as="geometry" />
        </mxCell>
        <mxCell id="GT7Ed_6fLBAB8st3_ZXu-17" style="edgeStyle=orthogonalEdgeStyle;rounded=0;orthogonalLoop=1;jettySize=auto;html=1;exitX=0;exitY=0;exitDx=0;exitDy=0;entryX=0.832;entryY=1.027;entryDx=0;entryDy=0;entryPerimeter=0;curved=1;endArrow=ERzeroToMany;endFill=0;" edge="1" parent="1" source="NjPy52NbWh8JsZaD-3iH-10" target="GT7Ed_6fLBAB8st3_ZXu-8">
          <mxGeometry relative="1" as="geometry" />
        </mxCell>
        <mxCell id="GT7Ed_6fLBAB8st3_ZXu-18" style="edgeStyle=orthogonalEdgeStyle;rounded=0;orthogonalLoop=1;jettySize=auto;html=1;entryX=1;entryY=0;entryDx=0;entryDy=0;curved=1;endArrow=ERoneToMany;endFill=0;" edge="1" parent="1" source="GT7Ed_6fLBAB8st3_ZXu-4" target="XN-No3UI-ebwH90ii3gY-32">
          <mxGeometry relative="1" as="geometry" />
        </mxCell>
        <mxCell id="GT7Ed_6fLBAB8st3_ZXu-19" style="edgeStyle=orthogonalEdgeStyle;rounded=0;orthogonalLoop=1;jettySize=auto;html=1;entryX=0.335;entryY=1.02;entryDx=0;entryDy=0;entryPerimeter=0;curved=1;endArrow=ERzeroToMany;endFill=0;" edge="1" parent="1" source="XN-No3UI-ebwH90ii3gY-31" target="GT7Ed_6fLBAB8st3_ZXu-4">
          <mxGeometry relative="1" as="geometry" />
        </mxCell>
        <mxCell id="GT7Ed_6fLBAB8st3_ZXu-20" style="edgeStyle=orthogonalEdgeStyle;rounded=0;orthogonalLoop=1;jettySize=auto;html=1;exitX=1;exitY=0.5;exitDx=0;exitDy=0;entryX=0.316;entryY=-0.011;entryDx=0;entryDy=0;entryPerimeter=0;curved=1;endArrow=ERmany;endFill=0;" edge="1" parent="1" source="GT7Ed_6fLBAB8st3_ZXu-3" target="NjPy52NbWh8JsZaD-3iH-7">
          <mxGeometry relative="1" as="geometry" />
        </mxCell>
      </root>
    </mxGraphModel>
  </diagram>
  <diagram id="eGvg7dJouFI78-XsKvD1" name="Page-2">
    <mxGraphModel grid="1" page="1" gridSize="10" guides="1" tooltips="1" connect="1" arrows="1" fold="1" pageScale="1" pageWidth="1100" pageHeight="850" math="0" shadow="0">
      <root>
        <mxCell id="0" />
        <mxCell id="1" parent="0" />
        <mxCell id="l6FvyF67LVCPibVYJlUs-1" value="SPONSER_BONDS" style="rounded=1;whiteSpace=wrap;html=1;fillColor=#dae8fc;strokeColor=#6c8ebf;" vertex="1" parent="1">
          <mxGeometry x="140" y="100" width="220" height="30" as="geometry" />
        </mxCell>
        <mxCell id="l6FvyF67LVCPibVYJlUs-2" value="SPONSERS_MISSIONS" style="rounded=1;whiteSpace=wrap;html=1;fillColor=#dae8fc;strokeColor=#6c8ebf;" vertex="1" parent="1">
          <mxGeometry x="500" y="100" width="170" height="30" as="geometry" />
        </mxCell>
        <mxCell id="Cf0GO_jkneWM0rtjAWoE-1" value="&lt;b&gt;_id &lt;/b&gt;ObjectId&lt;div&gt;&lt;b&gt;issuere_id &lt;/b&gt;ObjectId&lt;/div&gt;&lt;div&gt;&lt;b&gt;buyer_id &lt;/b&gt;ObjectId&lt;/div&gt;&lt;div&gt;&lt;b&gt;bond_price &lt;/b&gt;Number&lt;/div&gt;&lt;div&gt;&lt;b&gt;total_bonds &lt;/b&gt;Number&lt;/div&gt;&lt;div&gt;&lt;b&gt;bond_issueance_amount&lt;/b&gt;&lt;/div&gt;&lt;div&gt;&lt;b&gt;status &lt;/b&gt;enum (Pending,Approved,Rejected)&lt;/div&gt;&lt;div&gt;&lt;div&gt;&lt;b&gt;created_at&amp;nbsp;&lt;/b&gt;Date&lt;/div&gt;&lt;div&gt;&lt;b&gt;updated_at&amp;nbsp;&lt;/b&gt;Date&lt;/div&gt;&lt;/div&gt;" style="rounded=0;whiteSpace=wrap;html=1;align=left;" vertex="1" parent="1">
          <mxGeometry x="140" y="130" width="220" height="160" as="geometry" />
        </mxCell>
        <mxCell id="Cf0GO_jkneWM0rtjAWoE-2" value="&lt;b&gt;_id &lt;/b&gt;ObjectId&lt;div&gt;&lt;b&gt;bond_id&amp;nbsp;&lt;/b&gt;ObjectId&lt;/div&gt;&lt;div&gt;&lt;b&gt;mission_description &lt;/b&gt;String&amp;nbsp;&lt;/div&gt;&lt;div&gt;&lt;b&gt;status &lt;/b&gt;enum (Pending,Approved,Rejected)&lt;/div&gt;&lt;div&gt;&lt;b&gt;validaity_tnure &lt;/b&gt;Number&lt;/div&gt;&lt;div&gt;&lt;b&gt;created_at &lt;/b&gt;Date&lt;/div&gt;&lt;div&gt;&lt;b&gt;updated_at &lt;/b&gt;Date&lt;/div&gt;" style="rounded=0;whiteSpace=wrap;html=1;align=left;" vertex="1" parent="1">
          <mxGeometry x="500" y="130" width="170" height="130" as="geometry" />
        </mxCell>
        <mxCell id="Cf0GO_jkneWM0rtjAWoE-3" value="" style="edgeStyle=orthogonalEdgeStyle;fontSize=12;html=1;endArrow=ERzeroToOne;endFill=1;rounded=0;entryX=0.294;entryY=1.025;entryDx=0;entryDy=0;entryPerimeter=0;exitX=0.991;exitY=0.554;exitDx=0;exitDy=0;exitPerimeter=0;" edge="1" parent="1" source="Cf0GO_jkneWM0rtjAWoE-1" target="Cf0GO_jkneWM0rtjAWoE-2">
          <mxGeometry width="100" height="100" relative="1" as="geometry">
            <mxPoint x="320" y="260" as="sourcePoint" />
            <mxPoint x="420" y="160" as="targetPoint" />
          </mxGeometry>
        </mxCell>
        <mxCell id="Cf0GO_jkneWM0rtjAWoE-8" value="ADMIN" style="rounded=1;whiteSpace=wrap;html=1;fillColor=#dae8fc;strokeColor=#6c8ebf;arcSize=27;" vertex="1" parent="1">
          <mxGeometry x="370" y="320" width="120" height="30" as="geometry" />
        </mxCell>
        <mxCell id="Cf0GO_jkneWM0rtjAWoE-9" value="ROLES" style="rounded=1;whiteSpace=wrap;html=1;fillColor=#dae8fc;strokeColor=#6c8ebf;" vertex="1" parent="1">
          <mxGeometry x="130" y="425" width="120" height="30" as="geometry" />
        </mxCell>
        <mxCell id="Cf0GO_jkneWM0rtjAWoE-10" value="PERMISSIONS" style="rounded=1;whiteSpace=wrap;html=1;fillColor=#dae8fc;strokeColor=#6c8ebf;" vertex="1" parent="1">
          <mxGeometry x="370" y="425" width="140" height="30" as="geometry" />
        </mxCell>
        <mxCell id="Cf0GO_jkneWM0rtjAWoE-11" value="ACTIONS" style="rounded=1;whiteSpace=wrap;html=1;fillColor=#dae8fc;strokeColor=#6c8ebf;" vertex="1" parent="1">
          <mxGeometry x="620" y="425" width="120" height="30" as="geometry" />
        </mxCell>
        <mxCell id="Cf0GO_jkneWM0rtjAWoE-14" value="ROLES_PERMISSIONS" style="rounded=1;whiteSpace=wrap;html=1;fillColor=#dae8fc;strokeColor=#6c8ebf;" vertex="1" parent="1">
          <mxGeometry x="240" y="540" width="150" height="30" as="geometry" />
        </mxCell>
        <mxCell id="Cf0GO_jkneWM0rtjAWoE-15" value="PERMISSION_ACTIONS" style="rounded=1;whiteSpace=wrap;html=1;fillColor=#dae8fc;strokeColor=#6c8ebf;" vertex="1" parent="1">
          <mxGeometry x="530" y="540" width="150" height="30" as="geometry" />
        </mxCell>
        <mxCell id="Cf0GO_jkneWM0rtjAWoE-16" value="&lt;b&gt;_id &lt;/b&gt;ObjectId&lt;div&gt;&lt;b&gt;role_name &lt;/b&gt;String&lt;/div&gt;&lt;div&gt;&lt;div&gt;&lt;b&gt;created_at&amp;nbsp;&lt;/b&gt;Date&lt;/div&gt;&lt;div&gt;&lt;b&gt;updated_at&amp;nbsp;&lt;/b&gt;Date&lt;/div&gt;&lt;/div&gt;" style="rounded=0;whiteSpace=wrap;html=1;align=left;" vertex="1" parent="1">
          <mxGeometry x="130" y="455" width="120" height="65" as="geometry" />
        </mxCell>
        <mxCell id="Cf0GO_jkneWM0rtjAWoE-17" value="&lt;b&gt;_id &lt;/b&gt;ObjectId&lt;div&gt;&lt;b&gt;permission_name&amp;nbsp;&lt;/b&gt;String&lt;/div&gt;&lt;div&gt;&lt;div&gt;&lt;b&gt;created_at&amp;nbsp;&lt;/b&gt;Date&lt;/div&gt;&lt;div&gt;&lt;b&gt;updated_at&amp;nbsp;&lt;/b&gt;Date&lt;/div&gt;&lt;/div&gt;" style="rounded=0;whiteSpace=wrap;html=1;align=left;" vertex="1" parent="1">
          <mxGeometry x="370" y="455" width="140" height="65" as="geometry" />
        </mxCell>
        <mxCell id="Cf0GO_jkneWM0rtjAWoE-18" value="&lt;b&gt;_id &lt;/b&gt;ObjectId&lt;div&gt;&lt;b&gt;action_name&amp;nbsp;&lt;/b&gt;String&lt;/div&gt;&lt;div&gt;&lt;div&gt;&lt;b&gt;created_at&amp;nbsp;&lt;/b&gt;Date&lt;/div&gt;&lt;div&gt;&lt;b&gt;updated_at&amp;nbsp;&lt;/b&gt;Date&lt;/div&gt;&lt;/div&gt;" style="rounded=0;whiteSpace=wrap;html=1;align=left;" vertex="1" parent="1">
          <mxGeometry x="620" y="455" width="120" height="65" as="geometry" />
        </mxCell>
        <mxCell id="Cf0GO_jkneWM0rtjAWoE-19" value="&lt;b&gt;_id &lt;/b&gt;ObjectId&lt;div&gt;&lt;b&gt;role_id &lt;/b&gt;ObjectId&lt;/div&gt;&lt;div&gt;&lt;b&gt;permission_id &lt;/b&gt;ObjectId&lt;/div&gt;&lt;div&gt;&lt;div&gt;&lt;b&gt;created_at&amp;nbsp;&lt;/b&gt;Date&lt;/div&gt;&lt;div&gt;&lt;b&gt;updated_at&amp;nbsp;&lt;/b&gt;Date&lt;/div&gt;&lt;/div&gt;" style="rounded=0;whiteSpace=wrap;html=1;align=left;" vertex="1" parent="1">
          <mxGeometry x="240" y="570" width="150" height="90" as="geometry" />
        </mxCell>
        <mxCell id="Cf0GO_jkneWM0rtjAWoE-20" value="&lt;b&gt;_id &lt;/b&gt;ObjectId&lt;div&gt;&lt;b&gt;action_id&amp;nbsp;&lt;/b&gt;ObjectId&lt;/div&gt;&lt;div&gt;&lt;b&gt;permission_id &lt;/b&gt;ObjectId&lt;/div&gt;&lt;div&gt;&lt;div&gt;&lt;b&gt;created_at&amp;nbsp;&lt;/b&gt;Date&lt;/div&gt;&lt;div&gt;&lt;b&gt;updated_at&amp;nbsp;&lt;/b&gt;Date&lt;/div&gt;&lt;/div&gt;" style="rounded=0;whiteSpace=wrap;html=1;align=left;" vertex="1" parent="1">
          <mxGeometry x="530" y="570" width="150" height="80" as="geometry" />
        </mxCell>
        <mxCell id="Cf0GO_jkneWM0rtjAWoE-21" value="" style="edgeStyle=orthogonalEdgeStyle;fontSize=12;html=1;endArrow=ERzeroToOne;endFill=1;rounded=0;exitX=1;exitY=0.5;exitDx=0;exitDy=0;entryX=0.307;entryY=1.044;entryDx=0;entryDy=0;entryPerimeter=0;" edge="1" parent="1" source="Cf0GO_jkneWM0rtjAWoE-19" target="Cf0GO_jkneWM0rtjAWoE-17">
          <mxGeometry width="100" height="100" relative="1" as="geometry">
            <mxPoint x="320" y="580" as="sourcePoint" />
            <mxPoint x="420" y="480" as="targetPoint" />
          </mxGeometry>
        </mxCell>
        <mxCell id="Cf0GO_jkneWM0rtjAWoE-22" value="" style="edgeStyle=orthogonalEdgeStyle;fontSize=12;html=1;endArrow=ERzeroToOne;endFill=1;rounded=0;entryX=0.858;entryY=1.044;entryDx=0;entryDy=0;entryPerimeter=0;exitX=-0.02;exitY=0.4;exitDx=0;exitDy=0;exitPerimeter=0;" edge="1" parent="1" source="Cf0GO_jkneWM0rtjAWoE-19" target="Cf0GO_jkneWM0rtjAWoE-16">
          <mxGeometry width="100" height="100" relative="1" as="geometry">
            <mxPoint x="320" y="580" as="sourcePoint" />
            <mxPoint x="420" y="480" as="targetPoint" />
          </mxGeometry>
        </mxCell>
        <mxCell id="Cf0GO_jkneWM0rtjAWoE-23" value="" style="fontSize=12;html=1;endArrow=ERzeroToOne;endFill=1;rounded=0;edgeStyle=orthogonalEdgeStyle;exitX=1.02;exitY=0.65;exitDx=0;exitDy=0;exitPerimeter=0;" edge="1" parent="1" source="Cf0GO_jkneWM0rtjAWoE-20" target="Cf0GO_jkneWM0rtjAWoE-18">
          <mxGeometry width="100" height="100" relative="1" as="geometry">
            <mxPoint x="740" y="570" as="sourcePoint" />
            <mxPoint x="420" y="480" as="targetPoint" />
          </mxGeometry>
        </mxCell>
        <mxCell id="Cf0GO_jkneWM0rtjAWoE-24" value="" style="edgeStyle=entityRelationEdgeStyle;fontSize=12;html=1;endArrow=ERzeroToOne;endFill=1;rounded=0;exitX=0.829;exitY=1;exitDx=0;exitDy=0;exitPerimeter=0;entryX=0.067;entryY=0.5;entryDx=0;entryDy=0;entryPerimeter=0;" edge="1" parent="1">
          <mxGeometry width="100" height="100" relative="1" as="geometry">
            <mxPoint x="476.00999999999993" y="500" as="sourcePoint" />
            <mxPoint x="530" y="600" as="targetPoint" />
          </mxGeometry>
        </mxCell>
        <mxCell id="GuuN2PcTrW2Gaar_RJlT-1" value="OTP" style="rounded=1;whiteSpace=wrap;html=1;fillColor=#dae8fc;strokeColor=#6c8ebf;" vertex="1" parent="1">
          <mxGeometry x="710" y="100" width="120" height="30" as="geometry" />
        </mxCell>
        <mxCell id="GuuN2PcTrW2Gaar_RJlT-3" value="PAYMENT_METHODS" style="rounded=1;whiteSpace=wrap;html=1;fillColor=#dae8fc;strokeColor=#6c8ebf;" vertex="1" parent="1">
          <mxGeometry x="870" y="100" width="140" height="30" as="geometry" />
        </mxCell>
        <mxCell id="GuuN2PcTrW2Gaar_RJlT-4" value="&lt;b&gt;_id &lt;/b&gt;ObjectId&lt;div&gt;&lt;b&gt;otp &lt;/b&gt;Number&lt;/div&gt;&lt;div&gt;&lt;b&gt;otp_id&amp;nbsp;&lt;/b&gt;String&amp;nbsp;&lt;/div&gt;&lt;div&gt;&lt;b&gt;entity_type &lt;/b&gt;enum&lt;/div&gt;&lt;div&gt;&lt;b&gt;entity_id&amp;nbsp;&lt;/b&gt;String&lt;/div&gt;&lt;div&gt;&lt;b&gt;is_expired&amp;nbsp;&lt;/b&gt;Boolean&lt;/div&gt;&lt;div&gt;&lt;b&gt;expires_at&amp;nbsp;&lt;/b&gt;Date&lt;/div&gt;&lt;div&gt;&lt;b&gt;created_at &lt;/b&gt;Date&lt;/div&gt;&lt;div&gt;&lt;b&gt;updated_at &lt;/b&gt;Date&lt;/div&gt;" style="rounded=0;whiteSpace=wrap;html=1;align=left;" vertex="1" parent="1">
          <mxGeometry x="710" y="130" width="120" height="150" as="geometry" />
        </mxCell>
        <mxCell id="GuuN2PcTrW2Gaar_RJlT-5" value="&lt;b&gt;_id &lt;/b&gt;ObjectId&lt;div&gt;&lt;b&gt;method_name &lt;/b&gt;String&lt;/div&gt;&lt;div&gt;&lt;b&gt;ssid &lt;/b&gt;String&lt;/div&gt;&lt;div&gt;&lt;b&gt;created_at &lt;/b&gt;Date&lt;/div&gt;&lt;div&gt;&lt;b&gt;updated_at &lt;/b&gt;Date&lt;/div&gt;" style="rounded=0;whiteSpace=wrap;html=1;align=left;" vertex="1" parent="1">
          <mxGeometry x="870" y="130" width="140" height="90" as="geometry" />
        </mxCell>
        <mxCell id="GuuN2PcTrW2Gaar_RJlT-6" value="TRANSACTION" style="rounded=1;whiteSpace=wrap;html=1;fillColor=#dae8fc;strokeColor=#6c8ebf;" vertex="1" parent="1">
          <mxGeometry x="770" y="320" width="140" height="30" as="geometry" />
        </mxCell>
        <mxCell id="GuuN2PcTrW2Gaar_RJlT-7" value="&lt;b&gt;_id &lt;/b&gt;ObjectId&lt;div&gt;&lt;b&gt;user_id &lt;/b&gt;ObjectId&lt;/div&gt;&lt;div&gt;&lt;b&gt;transaction_type &lt;/b&gt;enum&lt;/div&gt;&lt;div&gt;&lt;b&gt;amount &lt;/b&gt;Number&lt;/div&gt;&lt;div&gt;&lt;b&gt;status &lt;/b&gt;enum&lt;/div&gt;&lt;div&gt;&lt;b&gt;description &lt;/b&gt;String&lt;/div&gt;&lt;div&gt;&lt;b&gt;created_at &lt;/b&gt;Date&lt;/div&gt;&lt;div&gt;&lt;b&gt;updated_at &lt;/b&gt;Date&lt;/div&gt;" style="rounded=0;whiteSpace=wrap;html=1;align=left;" vertex="1" parent="1">
          <mxGeometry x="770" y="350" width="140" height="130" as="geometry" />
        </mxCell>
        <mxCell id="GuuN2PcTrW2Gaar_RJlT-8" value="PENALITY" style="rounded=1;whiteSpace=wrap;html=1;fillColor=#dae8fc;strokeColor=#6c8ebf;" vertex="1" parent="1">
          <mxGeometry x="910" y="510" width="140" height="30" as="geometry" />
        </mxCell>
        <mxCell id="GuuN2PcTrW2Gaar_RJlT-9" value="&lt;b&gt;_id &lt;/b&gt;ObjectId&lt;div&gt;&lt;b&gt;user_id &lt;/b&gt;ObjectId&lt;/div&gt;&lt;div&gt;&lt;b&gt;penality_reason &lt;/b&gt;ObjectId&lt;/div&gt;&lt;div&gt;&lt;b&gt;amount &lt;/b&gt;Number&lt;/div&gt;&lt;div&gt;&lt;b&gt;status &lt;/b&gt;enum&lt;/div&gt;&lt;div&gt;&lt;b&gt;transaction &lt;/b&gt;ObjectId&lt;/div&gt;&lt;div&gt;&lt;b&gt;description &lt;/b&gt;String&lt;/div&gt;&lt;div&gt;&lt;b&gt;imposedBy &lt;/b&gt;ObjectId&lt;/div&gt;&lt;div&gt;&lt;b&gt;created_at &lt;/b&gt;Date&lt;/div&gt;&lt;div&gt;&lt;b&gt;updated_at &lt;/b&gt;Date&lt;/div&gt;" style="rounded=0;whiteSpace=wrap;html=1;align=left;" vertex="1" parent="1">
          <mxGeometry x="910" y="540" width="140" height="170" as="geometry" />
        </mxCell>
        <mxCell id="GuuN2PcTrW2Gaar_RJlT-10" value="PENALITY_REASON" style="rounded=1;whiteSpace=wrap;html=1;fillColor=#dae8fc;strokeColor=#6c8ebf;" vertex="1" parent="1">
          <mxGeometry x="730" y="580" width="140" height="30" as="geometry" />
        </mxCell>
        <mxCell id="GuuN2PcTrW2Gaar_RJlT-11" value="&lt;b&gt;_id &lt;/b&gt;ObjectId&lt;div&gt;&lt;b&gt;reason &lt;/b&gt;String&lt;/div&gt;&lt;div&gt;&lt;b&gt;amount &lt;/b&gt;Number&lt;/div&gt;&lt;div&gt;&lt;b&gt;created_at &lt;/b&gt;Date&lt;/div&gt;&lt;div&gt;&lt;b&gt;updated_at &lt;/b&gt;Date&lt;/div&gt;" style="rounded=0;whiteSpace=wrap;html=1;align=left;" vertex="1" parent="1">
          <mxGeometry x="730" y="610" width="140" height="80" as="geometry" />
        </mxCell>
      </root>
    </mxGraphModel>
  </diagram>
</mxfile>
